<?xml version="1.0" encoding="UTF-8"?>
<!DOCTYPE svg  PUBLIC '-//W3C//DTD SVG 1.1//EN'  'http://www.w3.org/Graphics/SVG/1.1/DTD/svg11.dtd'>
<svg version="1.1" xmlns="http://www.w3.org/2000/svg">
<defs>
<font id="Banny-BoldRound" horiz-adv-x="550">
<font-face font-family="Banny Round" font-weight="700" ascent="819" bbox="-15 -250 1170 999" cap-height="750" descent="-205" panose-1="0 0 0 0 0 0 0 0 0 0" underline-position="-150" underline-thickness="50" unicode-range="U+0020-00FE" units-per-em="1024" x-height="520"/>
<missing-glyph/>
<glyph glyph-name="space" horiz-adv-x="250" unicode=" "/>
<glyph d="M112 0q-36 0 -54 32q-7 14 -7 29v3q0 36 32 54q14 7 29 7h3q36 0 54 -32q7 -14 7 -29v-3q0 -36 -32 -54q-14 -7 -29 -7h-3zM45 689q0 36 32 54q14 7 29 7h13q36 0 54 -32q7 -14 7 -29v-242l-1 -13l-45 -207q-6 -15 -21 -17q-16 0 -21 15q-1 1 -1 2l-45 207l-1 13v242z " glyph-name="exclam" horiz-adv-x="225" unicode="!"/>
<glyph d="M268 693q0 35 32 51q13 6 26 6q34 0 51 -31q6 -13 6 -26v-55l-1 -8l-1 -8l-21 -75q-5 -20 -26 -26q-5 -1 -8 -1q-22 0 -33 21l-2 6l-21 75l-1 8l-1 8v55zM80 693q0 35 32 51q13 6 26 6q34 0 51 -31q6 -13 6 -26v-55l-1 -8l-1 -8l-21 -75q-5 -20 -26 -26q-5 -1 -8 -1 q-22 0 -33 21l-2 6l-21 75l-1 8l-1 8v55z" glyph-name="quotedbl" horiz-adv-x="465" unicode='"'/>
<glyph d="M478 742q3 7 9 8q7 -1 7 -8l-14 -106q-5 -40 28 -60q16 -9 33 -9h61q30 0 39 -27q3 -10 2 -20q-5 -31 -36 -43q-10 -4 -19 -4h-76q-36 0 -54 -33q-5 -10 -7 -20l-10 -73q-5 -42 29 -62q15 -8 32 -8h52q30 0 39 -27q3 -10 2 -20q-5 -31 -36 -43q-10 -4 -19 -4h-67 q-36 0 -54 -33q-5 -10 -7 -20l-16 -122q-3 -7 -9 -8q-7 1 -7 8l14 106q5 40 -28 60q-16 9 -33 9h-63q-36 0 -54 -33q-5 -10 -7 -20l-16 -122q-3 -7 -9 -8q-7 1 -7 8l14 106q5 40 -28 60q-16 9 -33 9h-68q-30 0 -39 27q-3 10 -2 20q5 31 36 43q10 4 19 4h83q36 0 54 33 q5 10 7 20l10 73q5 42 -29 62q-15 8 -32 8h-59q-30 0 -39 27q-3 10 -2 20q5 31 36 43q10 4 19 4h74q36 0 54 33q5 10 7 20l16 122q3 7 9 8q7 -1 7 -8l-14 -106q-5 -40 28 -60q16 -9 33 -9h63q36 0 54 33q5 10 7 20zM309 473q-36 0 -54 -33q-5 -10 -7 -20l-10 -73 q-5 -42 29 -62q15 -8 32 -8h63q36 0 54 33q5 10 7 20l10 73q5 42 -29 62q-15 8 -32 8h-63z" glyph-name="numbersign" horiz-adv-x="670" unicode="#"/>
<glyph d="M328 789q0 26 24 35q6 3 12 3h2q27 1 36 -24q2 -6 2 -12v-37q0 -16 19 -35q4 -4 6 -5q63 -38 113 -94l3 -2q1 -3 0 -5l-4 -4l-3 -3q-3 -2 -7 0q-50 54 -104 88q-15 9 -21 -4q-2 -4 -2 -7v-200q0 -24 28 -50q8 -8 15 -11q143 -65 144 -208q0 -136 -106 -190 q-22 -11 -46 -18q-19 -6 -31 -29q-4 -8 -4 -14q0 -24 -23 -33q-6 -2 -12 -2h-7q-23 0 -31 22q-2 6 -2 11v24q-1 7 -9 10q-22 2 -32 3q-7 0 -9 -6v-29q0 -25 -23 -34q-7 -2 -13 -2h-1q-26 0 -35 23q-3 8 -3 14v28q0 19 -23 44q-5 6 -8 8q-68 47 -107 124q-3 10 3 16 q7 4 13 -4q35 -71 94 -116q16 -11 24 3q3 5 3 10v224q0 25 -26 51q-7 6 -13 9q-126 60 -127 186q0 116 90 174q19 12 40 20q19 8 31 32q5 9 5 16q0 25 24 34q7 2 13 2h5q23 0 31 -22q2 -6 2 -11v-25q1 -6 9 -9q23 -2 32 -4q7 0 9 7v28zM279 474q1 -7 8 -10q11 -2 32 -6 q8 0 10 7v265q-1 8 -9 11q-2 0 -4 0.5l-4 1t-4.5 0.5t-4 0.5t-4 0.5h-3.5h-4l-4 1q-7 0 -9 -7v-264zM193 511q5 -6 10 0q1 2 1 4v171q0 5 -4 6q-3 -1 -5 -3q-25 -49 -25 -126q1 -31 23 -52zM288 326q-7 0 -9 -7v-291q1 -7 9 -10q20 -4 32 -5q8 0 9 8v289q-1 7 -8 10z M423 280q-13 9 -18 -4q-1 -3 -1 -6v-214q0 -14 9 -13q4 1 7 4q43 51 43 163q-1 41 -40 70z" glyph-name="dollar" horiz-adv-x="625" unicode="$"/>
<glyph d="M594 0q51 0 60 100q2 20 2 41q0 123 -50 139q-6 2 -12 2q-49 0 -59 -97q-2 -21 -2 -44q0 -121 47 -139q7 -2 14 -2zM594 -9q-91 0 -117 86q-9 29 -9 64q0 109 73 140q24 10 53 10q93 0 119 -88q8 -28 8 -62q0 -110 -75 -141q-24 -9 -52 -9zM186 468q49 0 59 97q2 21 2 44 q0 121 -47 139q-7 2 -14 2q-51 0 -60 -100q-2 -20 -2 -41q0 -123 50 -139q6 -2 12 -2zM186 459q-93 0 -119 88q-8 28 -8 62q0 110 75 141q24 9 52 9q91 0 117 -86q9 -29 9 -64q0 -109 -73 -140q-24 -10 -53 -10zM180 0q-11 0 -12 10q0 4 2 7l400 716q12 14 30 17 q11 0 12 -10q0 -4 -2 -7l-400 -716q-12 -14 -30 -17z" glyph-name="percent" horiz-adv-x="780" unicode="%"/>
<glyph d="M617 10q1 -9 -3 -11q-74 -29 -152 22q-13 9 -37 1l-6 -3q-58 -40 -129 -40q-142 0 -211 82q-42 50 -42 117q0 65 84 130q23 18 49 33q15 9 13 26q-1 5 -3 8q-49 66 -51 152q0 96 75 141q43 26 99 26q99 0 142 -67q21 -33 21 -75q0 -43 -98 -104q-26 -17 -55 -32 q-10 -4 -6 -18q0 -2 1 -3q55 -73 164 -225q10 -14 24 -4q5 4 7 9q25 76 24 173q1 5 8 4q7 -3 8 -8q1 -102 -28 -182q-7 -20 2 -49q2 -7 4 -10q55 -81 48 -94l3 -3l-2 4l3 -3q18 2 37 8q5 0 7 -5zM278 432q14 -15 30 -4q52 36 59 102q1 9 1 16q0 97 -40 125q-12 8 -24 8 q-41 0 -58 -70q-8 -33 -8 -74q1 -57 40 -103zM214 334q-10 10 -19 3q-37 -39 -38 -145q0 -121 65 -173q31 -24 70 -24q67 1 122 41q11 11 0 26q-31 33 -63 80q-96 132 -137 192z" glyph-name="ampersand" horiz-adv-x="678" unicode="&amp;"/>
<glyph d="M80 693q0 35 32 51q13 6 26 6q34 0 51 -31q6 -13 6 -26v-55l-1 -8l-1 -8l-21 -75q-5 -20 -26 -26q-5 -1 -8 -1q-22 0 -33 21l-2 6l-21 75l-1 8l-1 8v55z" glyph-name="quotesingle" horiz-adv-x="245" unicode="'"/>
<glyph d="M281 778q17 16 39 -5q14 -16 1 -37q-3 -5 -5 -7q-141 -139 -141 -394q1 -246 141 -384q15 -14 9 -36q-3 -5 -5 -8q-22 -20 -39 -5q-181 165 -181 433q1 277 181 443z" glyph-name="parenleft" horiz-adv-x="360" unicode="("/>
<glyph d="M79 -98q-17 -16 -39 5q-14 16 -1 37q3 5 5 7q141 139 141 394q-1 246 -141 384q-15 14 -9 36q3 5 5 8q22 20 39 5q181 -165 181 -433q-1 -277 -181 -443z" glyph-name="parenright" horiz-adv-x="320" unicode=")"/>
<glyph d="M339 694h-1v-1zM297 528q24 -19 11 -44q-5 -8 -12 -13q-27 -18 -48 2q-6 7 -9 15l-10 28q-9 23 -32 20q-16 -5 -23 -20l-11 -29q-10 -27 -37 -24q-11 1 -19 7q-25 18 -12 44q4 8 11 14l65 52q9 7 2 15q-3 2 -6 2q-34 1 -104 5q-17 0 -20 16q-1 5 0 10l7 21q9 26 35 26 q11 -1 20 -7l26 -17q22 -14 39 4q10 12 6 29l-8 29q-8 28 16 41q9 5 19 5q28 0 35 -25q3 -11 0 -21l-8 -30q-6 -24 15 -34q15 -7 29 2l24 16q27 17 47 -5q5 -6 8 -14q9 -28 -14 -42q-9 -4 -18 -5l-30 -1q-24 -2 -29 -24q-3 -17 11 -29z" glyph-name="asterisk" horiz-adv-x="406" unicode="*"/>
<glyph d="M258 164q0 36 -32 54q-14 7 -29 7h-137q-24 0 -33 23q-2 6 -2 12q0 24 23 33q6 2 12 2h137q36 0 54 32q7 14 7 29v127q0 25 24 34q7 3 14 3q24 0 34 -23q3 -7 3 -14v-127q0 -36 32 -54q14 -7 29 -7h136q24 0 33 -23q2 -6 2 -12q0 -24 -23 -33q-6 -2 -12 -2h-136 q-36 0 -54 -32q-7 -14 -7 -29v-126q0 -26 -23 -35q-8 -3 -14 -3q-27 0 -36 25q-2 7 -2 13v126z" glyph-name="plus" horiz-adv-x="590" unicode="+"/>
<glyph d="M50 64q0 36 32 54q14 7 29 7h3q36 0 54 -32q7 -14 7 -29v-64q0 -90 -61 -111q-15 -5 -33 -7q-24 -3 -30 20q-1 4 -1 8v12q0 12 13 19q3 1 4 1q26 7 32 38q1 19 -20 20h-4q-19 0 -24 19q-1 3 -1 6v39z" glyph-name="comma" horiz-adv-x="225" unicode=","/>
<glyph d="M98 216q-32 0 -44 29q-4 10 -4 19q0 31 29 43q10 4 19 4h170q31 0 43 -28q4 -10 4 -19q0 -32 -29 -44q-9 -4 -18 -4h-170z" glyph-name="hyphen" horiz-adv-x="365" unicode="-"/>
<glyph d="M111 0q-36 0 -54 32q-7 14 -7 29v3q0 36 32 54q14 7 29 7h3q36 0 54 -32q7 -14 7 -29v-3q0 -36 -32 -54q-14 -7 -29 -7h-3z" glyph-name="period" horiz-adv-x="225" unicode="."/>
<glyph d="M25 0q-17 0 -18 16q0 5 1 8l254 702q6 18 27 23q4 1 6 1q17 0 18 -16q0 -5 -1 -8l-254 -702q-6 -18 -27 -23q-4 -1 -6 -1z" glyph-name="slash" horiz-adv-x="320" unicode="/"/>
<glyph d="M185 375q4 -364 164 -368q163 2 163 368q0 259 -90 339q-32 29 -73 29q-92 0 -135 -135q-29 -93 -29 -233zM52 375q0 234 126 330q71 54 171 54q169 0 246 -145q50 -96 50 -239q0 -335 -227 -378q-33 -6 -69 -6q-249 0 -290 274q-7 51 -7 110z" glyph-name="zero" horiz-adv-x="700" unicode="0"/>
<glyph d="M330 61q0 -36 -32 -54q-14 -7 -29 -7h-6q-36 0 -54 32q-7 14 -7 29v518q0 33 -29 43q-27 8 -47 -14l-68 -78q-4 -4 -7 0q-1 2 -1 3q0 11 8 21l154 175q11 14 39 20q4 1 7 1h22q33 0 46 -30q4 -10 4 -20v-639z" glyph-name="one" horiz-adv-x="430" unicode="1"/>
<glyph d="M135 0q-40 0 -54 33q-5 15 -4 30q10 117 75 175q39 34 112 67q109 50 150 122q15 28 15 53q0 113 -72 164q-39 28 -91 28q-87 0 -125 -65q-18 -32 -18 -72q1 -69 36 -121q2 -7 -3 -11q-10 -4 -15 3q-37 56 -37 129q0 123 86 184q57 40 135 40q120 0 181 -87 q39 -57 39 -136q0 -68 -114 -152q-63 -45 -145 -83q-108 -50 -147 -106q-10 -14 -17 -29q-14 -29 13 -39q8 -3 17 -3h347q36 0 54 -32q7 -14 7 -29v-2q0 -36 -32 -54q-14 -7 -29 -7h-364z" glyph-name="two" horiz-adv-x="595" unicode="2"/>
<glyph d="M53 180q-11 48 30 62q12 3 24 3h11q32 0 54 -34q8 -14 10 -27q14 -129 78 -165q19 -11 40 -11q65 0 97 83q20 52 20 123q0 83 -67 118q-33 18 -75 18h-30q-23 0 -29 22q-1 4 -1 8v28q0 28 26 37q7 3 14 3h40q71 0 99 56q11 23 11 51q0 122 -56 169q-23 19 -51 19 q-54 0 -80 -80q-10 -29 -14 -63q-3 -32 -35 -51q-15 -9 -29 -9h-6q-64 0 -56 50q0 3 1 6q23 102 117 143q47 20 103 20q128 0 189 -80q36 -49 36 -113q0 -84 -67 -134q-5 -4 -8 -6q-13 -9 -8 -26q3 -5 6 -7q85 -50 103 -144q4 -20 4 -40q0 -115 -94 -176q-66 -42 -160 -42 q-133 0 -203 92q-32 43 -44 97z" glyph-name="three" horiz-adv-x="599" unicode="3"/>
<glyph d="M25 210q0 4 4 13l323 499q11 17 40 26q7 2 11 2h17q33 0 46 -30q4 -10 4 -20v-428q0 -33 30 -48q11 -5 23 -5h44q6 -1 8 -8q-1 -8 -8 -9h-44q-33 0 -48 -30q-5 -11 -5 -22v-89q0 -36 -32 -54q-14 -7 -29 -7h-7q-36 0 -54 32q-7 14 -7 29v80q0 36 -32 54q-14 7 -29 7h-247 q-7 2 -8 8zM105 314q-24 -38 1 -71q19 -23 51 -24h123q36 0 54 32q7 14 7 29v268l1 9l11 77q2 15 -12 20q-13 2 -20 -8z" glyph-name="four" horiz-adv-x="595" unicode="4"/>
<glyph d="M110 342q-9 3 -9 12l39 342q3 33 36 49q12 6 25 6h258q37 0 52 -32q7 -14 6 -29l-1 -5q-2 -35 -35 -51q-13 -6 -26 -6h-241q-34 0 -53 -31q-6 -11 -8 -21l-15 -105q-1 -9 7 -10q3 0 5 1q53 26 139 26q142 0 215 -94q51 -66 51 -159q0 -128 -92 -196q-67 -48 -162 -48 q-133 0 -203 92q-32 43 -44 97q-11 48 30 62q12 3 24 3h11q32 0 54 -34q8 -14 10 -27q14 -129 78 -165q19 -11 40 -11q63 0 95 87q22 59 22 140q0 88 -68 128q-38 21 -85 21q-95 -1 -140 -38q-6 -5 -15 -4z" glyph-name="five" horiz-adv-x="595" unicode="5"/>
<glyph d="M533 627q1 -6 -5 -10q-7 -3 -10 1q-27 77 -111 110q-42 16 -88 16q-88 0 -118 -179q-10 -63 -12 -142q0 -7 10 -8q3 1 5 2q54 55 131 59q133 0 200 -88q45 -60 45 -143q0 -134 -94 -204q-67 -50 -162 -50q-224 0 -261 269q-7 50 -7 109q0 240 113 337q62 53 150 53 q110 0 175 -69q27 -29 39 -63zM331 460v1q-96 0 -130 -52q-11 -17 -12 -37q5 -364 135 -365q63 0 96 89q23 62 23 149q0 138 -57 192q-25 23 -55 23z" glyph-name="six" horiz-adv-x="585" unicode="6"/>
<glyph d="M30 689q0 36 32 54q14 7 29 7h328q36 0 54 -32q7 -14 7 -29v-36q0 -14 -20 -45q-2 -3 -3 -4q-136 -142 -176 -341q-17 -88 -21 -198q-1 -36 -33 -56q-14 -9 -29 -9h-20q-44 0 -56 36q-3 13 -2 26q18 185 168 375q34 42 74 86q30 32 9 70q-19 33 -59 34h-221q-36 0 -54 32 q-7 14 -7 29v1z" glyph-name="seven" horiz-adv-x="490" unicode="7"/>
<glyph d="M205 554q0 -127 87 -143q12 -2 24 -2q89 0 106 98q4 22 4 47q0 143 -68 179q-20 10 -42 10q-75 0 -100 -95q-11 -41 -11 -94zM86 565q0 129 114 174q50 20 116 20q156 0 208 -101q21 -41 21 -93q-1 -118 -122 -155q-3 0 -5 -4.5t-1.5 -9t3.5 -4.5q151 -42 153 -190 q0 -159 -154 -199q-47 -12 -104 -12q-200 0 -247 133q-12 36 -12 79q1 144 143 186q2 0 3.5 2t2.5 4.5t1.5 5.5t0.5 5.5t-1 4.5t-3 2q-116 36 -117 152zM194 212q0 -171 88 -200q16 -5 34 -5q91 0 114 122q7 38 7 85q0 145 -85 172q-17 5 -36 5q-95 0 -116 -112 q-6 -31 -6 -67z" glyph-name="eight" horiz-adv-x="629" unicode="8"/>
<glyph d="M97 123q-1 6 6 11q6 2 9 -2q27 -77 111 -110q42 -16 88 -16q88 0 118 179q10 63 12 142q0 7 -10 8q-3 -1 -5 -2q-54 -55 -131 -59q-133 0 -200 88q-45 60 -45 143q0 134 94 204q67 50 162 50q224 0 261 -269q7 -50 7 -109q0 -240 -113 -337q-62 -53 -150 -53 q-110 0 -175 69q-27 29 -39 63zM299 290q99 0 131 53q10 16 11 35q-5 364 -135 365q-63 0 -96 -89q-23 -62 -23 -149q0 -138 57 -192q25 -23 55 -23z" glyph-name="nine" horiz-adv-x="585" unicode="9"/>
<glyph d="M111 395q-36 0 -54 32q-7 14 -7 29v3q0 36 32 54q14 7 29 7h3q36 0 54 -32q7 -14 7 -29v-3q0 -36 -32 -54q-14 -7 -29 -7h-3zM111 0q-36 0 -54 32q-7 14 -7 29v3q0 36 32 54q14 7 29 7h3q36 0 54 -32q7 -14 7 -29v-3q0 -36 -32 -54q-14 -7 -29 -7h-3z" glyph-name="colon" horiz-adv-x="225" unicode=":"/>
<glyph d="M111 395q-36 0 -54 32q-7 14 -7 29v3q0 36 32 54q14 7 29 7h3q36 0 54 -32q7 -14 7 -29v-3q0 -36 -32 -54q-14 -7 -29 -7h-3zM50 64q0 36 32 54q14 7 29 7h3q36 0 54 -32q7 -14 7 -29v-64q0 -90 -61 -111q-15 -5 -33 -7q-24 -3 -30 20q-1 4 -1 8v12q0 12 13 19q3 1 4 1 q26 7 32 38q1 19 -20 20h-4q-19 0 -24 19q-1 3 -1 6v39z" glyph-name="semicolon" horiz-adv-x="225" unicode=";"/>
<glyph d="M451 475q25 11 39 -10q5 -8 5 -18v-7q0 -27 -25 -49q-7 -5 -13 -8l-166 -66q-40 -16 -40.5 -55.5t37.5 -57.5q2 -1 3 -1l166 -66q24 -10 35 -41q3 -9 3 -16v-6q0 -26 -22 -31q-11 -2 -22 2l-369 157q-23 10 -34 41q-3 9 -3 16v3q0 28 25 50q7 5 12 7z" glyph-name="less" horiz-adv-x="555" unicode="&lt;"/>
<glyph d="M39 165q0 24 23 33q6 2 12 2h445q24 0 33 -23q2 -6 2 -12q0 -24 -23 -33q-6 -2 -12 -2h-445q-24 0 -33 23q-2 6 -2 12zM39 365q0 24 23 33q6 2 12 2h445q24 0 33 -23q2 -6 2 -12q0 -24 -23 -33q-6 -2 -12 -2h-445q-24 0 -33 23q-2 6 -2 12z" glyph-name="equal" horiz-adv-x="604" unicode="="/>
<glyph d="M264 203q40 16 40.5 55.5t-37.5 57.5q-2 1 -3 1l-166 66q-24 10 -35 41q-3 9 -3 16v7q0 25 22 30q11 2 22 -2l369 -156q23 -10 34 -41q3 -9 3 -16v-3q0 -28 -25 -50q-7 -5 -12 -7l-369 -157q-25 -11 -39 10q-5 9 -5 19v6q0 27 25 49q7 5 13 8z" glyph-name="greater" horiz-adv-x="555" unicode="&gt;"/>
<glyph d="M265 0q-36 0 -54 32q-7 14 -7 29v3q0 36 32 54q14 7 29 7h3q36 0 54 -32q7 -14 7 -29v-3q0 -36 -32 -54q-14 -7 -29 -7h-3zM70 550q-60 13 -44 61q31 90 132 128q53 20 116 20q135 0 201 -83q40 -52 40 -121q0 -78 -69 -142q-24 -21 -55 -43q-49 -34 -60 -69 q-6 -18 -8 -43q-2 -27 -28 -42q-11 -6 -20 -6h-9q-38 0 -50 34q-4 11 -4 22q5 87 40 129q20 24 58 50q78 55 84 99q1 6 1 11q0 72 -60 101q-28 13 -61 13q-87 0 -128 -65q-7 -13 -12 -26q-6 -17 -28 -28q-11 -4 -18 -3z" glyph-name="question" horiz-adv-x="565" unicode="?"/>
<glyph d="M1035 -133q5 4 11 1q1 -3 -4 -9q-116 -77 -294 -101q-55 -7 -106 -7q-261 0 -421 141q-155 137 -162 358v20q0 226 150 368q153 144 406 151h21q250 0 397 -127q137 -118 137 -304q0 -189 -95 -288q-68 -71 -165 -71q-109 0 -154 84q-9 18 -14 37q-2 9 -17 3q-4 -3 -6 -5 q-45 -85 -131 -100q-15 -2 -29 -2q-137 0 -197 92q-43 67 -32 161q15 128 117 194q73 47 168 47q99 -2 127 -112q0 -2 2.5 -3t4.5 -0.5t2 2.5q11 101 22 102h95l2 -1l1 -3l2 -1q-18 -37 -30 -286q-16 -138 32 -184q18 -17 40 -17q83 0 131 113q39 94 39 237q0 195 -131 311 q-123 109 -318 109q-221 0 -357 -140q-135 -140 -135 -368q0 -231 139 -370q137 -138 359 -138q171 0 320 67q41 18 73 39zM744 304l1 4q-4 187 -132 188q-78 0 -127 -89q-32 -58 -41 -137q-17 -145 43 -208q30 -30 72 -30q92 0 143 78q28 43 35 99q0 2 6 95z" glyph-name="at" horiz-adv-x="1225" unicode="@"/>
<glyph d="M513 252q0 -6 -5 -7l-313 1q-28 0 -50 -26q-5 -8 -8 -14l-58 -155q-6 -14 -16 -41q-3 -8 -12 -9h-7h-5q1 2 9 25q10 26 104 276q152 404 154 407l8 21q6 16 25 20q3 1 5 1h75q27 0 49 -26q5 -8 8 -14l251 -663l9 -22q2 -4 3.5 -8t2.5 -6.5t1.5 -5t0.5 -4.5l1 -1l-2 -1 q-2 1 -3 1h-112q-18 2 -27 18l-7 19l-5 12q-15 43 -49 131l-27 72v-1zM188 344q-16 -42 15 -68q18 -15 43 -15h175q43 0 58 35q9 23 0 48l-88 234q-14 40 -54 42t-58 -34q-2 -4 -3 -7z" glyph-name="A" horiz-adv-x="754" unicode="A"/>
<glyph d="M488 427q-7 -3 -2 -15l3 -3q113 -25 153 -113q16 -36 16 -78q0 -136 -88 -183q-64 -34 -187 -34h-235q-36 0 -54 32q-7 14 -7 29v628q0 36 32 54q14 7 29 7h197q184 0 240 -73q35 -45 35 -125q0 -72 -87 -111q-21 -9 -45 -15zM215 481q0 -36 32 -54q14 -7 29 -7h83 q81 0 114 62q14 27 14 61q0 138 -61 174q-31 18 -80 18h-70q-36 0 -54 -32q-7 -14 -7 -29v-193zM215 76q0 -36 32 -54q14 -7 29 -7h102q93 0 123 77q19 49 19 139q0 111 -60 155q-27 20 -60 20h-124q-36 0 -54 -32q-7 -14 -7 -29v-269z" glyph-name="B" horiz-adv-x="693" unicode="B"/>
<glyph d="M656 174q5 6 12 2q6 -6 3 -14q-48 -102 -143 -147q-51 -24 -103 -24q-165 0 -272 115q-99 114 -101 269q0 156 98 265q111 117 275 119q92 0 181 -88q36 -37 64 -83q4 -4 2 -11l-4 -3l-4 -3q-3 -1 -9 5q-66 108 -156 149q-39 18 -74 18q-106 0 -173 -113 q-63 -105 -63 -255q0 -169 77 -277q66 -90 159 -91q97 0 176 85q33 37 55 82z" glyph-name="C" horiz-adv-x="695" unicode="C"/>
<glyph d="M350 0h-202q-36 0 -54 32q-7 14 -7 29v628q0 36 32 54q14 7 29 7h172q337 0 383 -282q7 -44 7 -93q0 -298 -221 -358q-61 -17 -139 -17zM215 76q0 -36 32 -54q14 -7 29 -7h73q174 0 212 211q12 65 12 149q0 333 -217 358q-18 2 -35 2h-53q-33 0 -48 -30q-5 -11 -5 -23 v-606z" glyph-name="D" horiz-adv-x="765" unicode="D"/>
<glyph d="M582 16q6 -1 8 -8q-1 -6 -8 -8h-434q-36 0 -54 32q-7 14 -7 29v628q0 36 32 54q14 7 29 7h419q6 -1 8 -8q-1 -6 -8 -8h-291q-36 0 -54 -32q-7 -14 -7 -29v-218q0 -36 32 -54q14 -7 29 -7h272q6 -2 7 -7q-2 -6 -7 -7h-272q-36 0 -54 -32q-7 -14 -7 -29v-242q0 -36 32 -54 q14 -7 29 -7h306z" glyph-name="E" horiz-adv-x="640" unicode="E"/>
<glyph d="M538 394q6 -2 7 -7q-2 -6 -7 -7h-262q-36 0 -54 -32q-7 -14 -7 -29v-258q0 -36 -32 -54q-14 -7 -29 -7h-6q-36 0 -54 32q-7 14 -7 29v628q0 36 32 54q14 7 29 7h419q6 -1 8 -8q-1 -6 -8 -8h-291q-36 0 -54 -32q-7 -14 -7 -29v-218q0 -36 32 -54q14 -7 29 -7h262z" glyph-name="F" horiz-adv-x="605" unicode="F"/>
<glyph d="M460 395q-6 1 -8 8q1 6 8 8h180q36 0 54 -32q7 -14 7 -29v-217q0 -20 -19 -43q-3 -4 -6 -6q-123 -93 -229 -93q-190 0 -299 119q-96 105 -96 265q0 183 121 290q108 94 274 94q78 0 160 -89q34 -37 61 -82q4 -4 2 -11l-4 -3l-4 -3q-3 -2 -9 5q-66 110 -146 151 q-33 16 -60 16q-126 0 -197 -116q-61 -100 -61 -252q0 -196 95 -297q68 -71 163 -71q98 1 212 87q17 14 22 41q1 4 1 7v192q0 36 -32 54q-14 7 -29 7h-161z" glyph-name="G" horiz-adv-x="746" unicode="G"/>
<glyph d="M693 61q0 -36 -32 -54q-14 -7 -29 -7h-6q-36 0 -54 32q-7 14 -7 29v265q0 36 -32 54q-14 7 -29 7h-228q-36 0 -54 -32q-7 -14 -7 -29v-265q0 -36 -32 -54q-14 -7 -29 -7h-6q-36 0 -54 32q-7 14 -7 29v628q0 36 32 54q14 7 29 7h6q36 0 54 -32q7 -14 7 -29v-225 q0 -36 32 -54q14 -7 29 -7h228q36 0 54 32q7 14 7 29v225q0 36 32 54q14 7 29 7h6q36 0 54 -32q7 -14 7 -29v-628z" glyph-name="H" horiz-adv-x="778" unicode="H"/>
<glyph d="M216 61q0 -36 -32 -54q-14 -7 -29 -7h-6q-36 0 -54 32q-7 14 -7 29v628q0 36 32 54q14 7 29 7h6q36 0 54 -32q7 -14 7 -29v-628z" glyph-name="I" horiz-adv-x="301" unicode="I"/>
<glyph d="M49 248q0 23 22 34q5 2 9 3l72 13q19 3 24 -15q1 -3 1 -6v-25q0 -216 67 -240q10 -3 21 -3q62 0 80 118q7 42 7 93v469q0 36 32 54q14 7 29 7h6q36 0 54 -32q7 -14 7 -29v-469q0 -146 -99 -202q-49 -27 -116 -27q-164 0 -202 122q-14 44 -14 103v32z" glyph-name="J" horiz-adv-x="565" unicode="J"/>
<glyph d="M668 8q3 -6 -5 -8h-118q-19 0 -34 17q-3 3 -4 5l-13 21l-4 7l-178 292q-17 27 -2 60q4 8 8 13l16 18q25 28 58 14q15 -8 24 -22l227 -375q14 -23 25 -42zM612 750q2 -1 2 -4q-5 -5 -23 -24q-13 -15 -16 -18l-345 -386q-11 -14 -16 -40v-216q0 -36 -32 -54q-14 -7 -29 -7 h-6q-36 0 -54 32q-7 14 -7 29v628q0 36 32 54q14 7 29 7h6q36 0 54 -32q7 -14 7 -29v-204q0 -43 36 -59q37 -16 67 14l4 4l262 294l5 6q5 4 12 5h12z" glyph-name="K" horiz-adv-x="683" unicode="K"/>
<glyph d="M533 16q6 -1 8 -8q-1 -6 -8 -8h-384q-36 0 -54 32q-7 14 -7 29v628q0 36 32 54q14 7 29 7h6q36 0 54 -32q7 -14 7 -29v-612q0 -36 32 -54q14 -7 29 -7h256z" glyph-name="L" horiz-adv-x="571" unicode="L"/>
<glyph d="M133 10q-1 -9 -9 -10q-9 2 -10 10v679q0 36 32 54q14 7 29 7h22q32 0 52 -30q6 -9 8 -17l108 -431q9 -39 48 -46q40 -6 62 25q6 10 9 21l108 432q8 29 39 42q11 4 21 4h27q36 0 54 -32q7 -14 7 -29v-628q0 -36 -32 -54q-14 -7 -29 -7h-2q-36 0 -54 32q-7 14 -7 29v302 q0 30 -31 40q-32 10 -50 -13q-6 -8 -8 -16l-83 -328q-8 -29 -39 -42q-11 -4 -21 -4h-18q-33 0 -53 29q-5 9 -7 17l-83 327q-8 31 -43 31q-32 0 -43 -25q-4 -8 -4 -17v-352z" glyph-name="M" horiz-adv-x="825" unicode="M"/>
<glyph d="M133 10q-1 -9 -9 -10q-9 2 -10 10v679q0 36 32 54q14 7 29 7h41q27 0 49 -25q5 -7 8 -13l173 -411q16 -38 58 -36q39 1 54 34q6 13 6 26v416q2 8 10 9q8 -2 9 -9v-680q0 -36 -32 -54q-14 -7 -29 -7h-51q-27 0 -49 25q-5 7 -8 13l-163 387q-16 38 -58 36q-39 -1 -54 -34 q-6 -13 -6 -26v-391z" glyph-name="N" horiz-adv-x="668" unicode="N"/>
<glyph d="M194 375q0 -203 85 -304q55 -63 129 -64q103 0 163 115q51 100 51 253q0 180 -77 287q-59 80 -137 81q-92 0 -153 -105q-61 -106 -61 -263zM57 375q0 166 102 276q101 108 249 108t249 -108q102 -111 102 -276q0 -189 -113 -295q-95 -89 -238 -89q-169 0 -267 120 q-84 104 -84 264z" glyph-name="O" horiz-adv-x="814" unicode="O"/>
<glyph d="M215 61q0 -36 -32 -54q-14 -7 -29 -7h-6q-36 0 -54 32q-7 14 -7 29v628q0 36 32 54q14 7 29 7h178q262 -2 263 -225q-10 -199 -263 -203h-55q-35 0 -50 -31q-6 -12 -6 -24v-206zM215 393q0 -35 31 -50q13 -6 25 -6h56q133 2 134 188q-1 209 -136 210h-55q-34 0 -49 -31 q-6 -12 -6 -24v-287z" glyph-name="P" horiz-adv-x="624" unicode="P"/>
<glyph d="M194 375h1q0 -203 85 -304q54 -64 129 -65q44 1 82 23q11 9 2 21q-35 35 -55 54q-5 7 0 12t10 1q29 -25 64 -47q16 -8 29 5q81 103 81 300q0 180 -77 287q-59 80 -137 81q-92 0 -153 -105q-61 -106 -61 -263zM58 374q0 166 102 276q100 108 248 108t249 -108 q102 -111 102 -276q0 -192 -115 -297q-20 -18 -40 -31q-14 -10 -2 -23q4 -4 8 -6q19 -9 38.5 -16.5t29.5 -11.5l11 -4q8 -3 -5 -10q-10 -6 -13 -9l-38 -40l-16 -17l-53 64q-10 12 -20 23q-13 11 -33 8q-49 -14 -102 -14q-169 0 -267 120q-84 104 -84 264z" glyph-name="Q" horiz-adv-x="814" unicode="Q"/>
<glyph d="M590 50q1 -1 16 -29l6 -10q3 -10 -6 -11h-99q-23 0 -46 22q-5 5 -8 9l-138 245q-17 30 6 52q13 12 32 12h37q23 0 46 -22q5 -5 8 -9zM215 61q0 -36 -32 -54q-14 -7 -29 -7h-6q-36 0 -54 32q-7 14 -7 29v628q0 36 32 54q14 7 29 7h178q262 -2 263 -225q-2 -182 -263 -183 h-55q-35 0 -50 -31q-6 -12 -6 -24v-226zM215 413q0 -35 31 -50q13 -6 25 -6h56q133 2 134 168q-1 209 -136 210h-55q-34 0 -49 -31q-6 -12 -6 -24v-267z" glyph-name="R" horiz-adv-x="624" unicode="R"/>
<glyph d="M543 608q0 -1 -6 -6h-1q-4 -3 -10 4q-111 118 -227 134q-15 2 -29 2q-58 0 -86 -76q-16 -46 -16 -107q2 -81 160 -108q250 -42 261 -225v-16q0 -135 -106 -190q-57 -29 -138 -29q-142 0 -233 103q-29 34 -49 74q-3 9 4 15q8 4 12 -3q63 -125 185 -161q40 -11 81 -11 q81 0 106 106q10 41 10 92q-2 86 -168 115q-256 45 -257 225q0 115 89 174q61 39 145 39q41 0 84.5 -14.5t75 -35.5t57.5 -42t39 -35l14 -15l3 -3q3 -3 0 -6z" glyph-name="S" horiz-adv-x="625" unicode="S"/>
<glyph d="M577 750q6 -1 8 -8q-1 -6 -8 -8h-154q-36 0 -54 -32q-7 -14 -7 -29v-612q0 -36 -32 -54q-14 -7 -29 -7h-7q-36 0 -54 32q-7 14 -7 29v612q0 36 -32 54q-14 7 -29 7h-154q-6 1 -8 8q1 6 8 8h559z" glyph-name="T" horiz-adv-x="595" unicode="T"/>
<glyph d="M605 741q2 8 10 9q8 -2 9 -9v-447q0 -286 -243 -302q-14 -1 -29 -1q-256 0 -271 265q-1 17 -1 33v400q0 36 32 54q14 7 29 7h6q36 0 54 -32q7 -14 7 -29v-377q1 -302 144 -303q232 0 251 245q2 22 2 44v443z" glyph-name="U" horiz-adv-x="704" unicode="U"/>
<glyph d="M572 747q2 3 4 3h7q9 -3 7 -11l-10 -34l-2 -4l-202 -657q-8 -26 -38 -39q-11 -4 -20 -4h-30q-30 0 -51 28q-5 8 -7 15l-203 657l-2 5l-12 39l-1 3q0 2 2 3h125q8 -1 12 -9l2 -9l143 -502q11 -39 50 -45t60 27q5 8 8 17l144 473l6 18q6 21 8 26z" glyph-name="V" horiz-adv-x="637" unicode="V"/>
<glyph d="M783 741q3 8 12 10h4h5q0 -2 -4 -25q-38 -206 -119 -672q-6 -31 -37 -48q-12 -6 -24 -6h-22q-33 0 -52 31q-6 10 -8 19l-59 318q-7 38 -45.5 47t-61.5 -19q-10 -12 -13 -28l-59 -318q-6 -32 -38 -45q-12 -5 -22 -5h-21q-34 0 -52 31q-6 10 -8 20l-117 652l-4 22 q-1 4 -1.5 8t-1 6.5l-1 5t-0.5 3.5v2q2 1 5 0h127h5q0 -2 4 -25l54 -338q6 -36 43 -45q38 -8 61 19q8 11 11 25l57 314q6 32 38 45q12 5 22 5h22q33 0 52 -31q6 -10 8 -19l60 -326q7 -38 44.5 -45.5t60.5 19.5q8 12 11 26l57 326z" glyph-name="W" horiz-adv-x="837" unicode="W"/>
<glyph d="M65 25l1 1q82 103 222 285q20 26 10 56q-1 4 -3 7q-31 52 -91 158q-60 105 -90 157q-16 29 4 51q11 12 27 12h66l29 -50l104 -181q23 -38 62 -32q24 5 40 25l147 188q1 2 19 25l13 16q7 8 18 9h5h6q-1 -2 -19 -25q-45 -58 -136 -174q-51 -66 -76 -98q-20 -24 -9 -55 q2 -4 3 -7q33 -57 97 -169q65 -114 97 -170q16 -28 -8 -45q-12 -8 -27 -8h-67l-29 50l-112 195q-23 39 -62 32q-24 -5 -40 -25l-160 -206l-30 -38q-6 -8 -18 -9h-6h-6q1 2 19 25z" glyph-name="X" horiz-adv-x="690" unicode="X"/>
<glyph d="M144 750q11 -1 18 -11l22 -40l174 -315q5 -6 13 -7q7 1 12 8l179 328l3 6t4 7.5t4.5 8t4 7.5t2.5 6l2 2q4 2 10 0q6 0 5 -5q-1 -2 -1 -3l-196 -357q-7 -14 -8 -30v-294q0 -36 -32 -54q-14 -7 -29 -7h-6q-36 0 -54 32q-7 14 -7 29v253q0 12 -8 30l-200 356q-1 2 -15 27 l-6 12q-6 7 3 10q2 1 3 1h103z" glyph-name="Y" horiz-adv-x="633" unicode="Y"/>
<glyph d="M602 16q6 -1 8 -8q-1 -6 -8 -8h-549q-6 1 -8 8q0 6 4 15l364 618q22 39 -4 71q-18 21 -49 22h-292q-6 1 -8 8q1 6 8 8h534q6 -1 8 -8q0 -6 -4 -15l-364 -618q-22 -39 4 -71q18 -21 49 -22h307z" glyph-name="Z" horiz-adv-x="655" unicode="Z"/>
<glyph d="M261 685q-36 0 -54 -32q-7 -14 -7 -29v-613q0 -36 32 -54q14 -7 29 -7h37q22 0 30 -22q2 -6 2 -11q0 -22 -21 -30q-6 -2 -11 -2h-112q-36 0 -54 32q-7 14 -7 29v743q0 36 32 54q14 7 29 7h112q22 0 30 -21q2 -6 2 -11q0 -23 -22 -31q-5 -2 -10 -2h-37z" glyph-name="bracketleft" horiz-adv-x="360" unicode="["/>
<glyph d="M315 0q-20 0 -32 19l-2 4l-272 704q-6 15 8 22q4 1 8 1q20 0 32 -19l2 -4l272 -704q6 -15 -8 -22q-4 -1 -8 -1z" glyph-name="backslash" horiz-adv-x="340" unicode="\"/>
<glyph d="M160 624q0 36 -32 54q-14 7 -29 7h-36q-23 0 -31 22q-2 6 -2 11q0 22 22 30q6 2 11 2h111q36 0 54 -32q7 -14 7 -29v-743q0 -36 -32 -54q-14 -7 -29 -7h-111q-23 0 -31 22q-2 5 -2 10q0 23 22 31q6 2 11 2h36q36 0 54 32q7 14 7 29v613z" glyph-name="bracketright" horiz-adv-x="360" unicode="]"/>
<glyph d="M179 657q-9 3 -14 -2l-2 -2l-40 -37q-17 -12 -42 -16h-28q-23 0 -27 20q-2 12 5 22l63 83q12 16 40 24q6 1 9 1h54q20 0 43 -19q4 -3 6 -6l63 -83q14 -20 -2 -35q-9 -7 -19 -7h-22h-3h-3h-4h-3h-3h-3h-3h-9l-30 36q-16 16 -26 21z" glyph-name="asciicircum" horiz-adv-x="340" unicode="^"/>
<glyph d="M85 -135q-24 0 -33 23q-2 6 -2 12q0 24 23 33q6 2 12 2h510q24 0 33 -23q2 -6 2 -12q0 -24 -23 -33q-6 -2 -12 -2h-510z" glyph-name="underscore" horiz-adv-x="680" unicode="_"/>
<glyph d="M151 600q-22 0 -44 20q-5 5 -7 8l-39 59q-18 28 3 50q12 13 31 13h32q27 0 48 -26q6 -8 9 -15l22 -59q10 -29 -14 -44q-10 -6 -21 -6h-20z" glyph-name="grave" horiz-adv-x="340" unicode="`"/>
<glyph d="M85 381q-7 1 -6 9q31 85 113 121q40 18 84 18q198 -2 199 -193v-226q0 -19 9 -23q5 -1 13 -2q17 0 22 -15q1 -4 1 -6v-21q0 -30 -26 -40q-8 -3 -16 -3q-82 1 -101 19q-16 16 -17 77v14v8l-1 -1q-23 -109 -114 -124q-16 -2 -34 -2q-170 1 -171 105q0 87 74 127 q42 22 97 22q118 0 142 83q7 25 7 57q-1 129 -84 130q-89 0 -147 -71q-22 -28 -34 -60q-3 -5 -10 -3zM360 282q0 6 -9 6q-3 -1 -4 -2q-34 -52 -125 -52q-41 0 -58 -62q-9 -32 -9 -71q1 -97 61 -98q105 0 133 98q8 31 11 70v111z" glyph-name="a" unicode="a"/>
<glyph d="M185 58q0 -37 -33 -53q-12 -5 -24 -6q-36 -1 -52 31q-6 13 -6 26v635q0 35 32 51q13 6 26 6q34 0 51 -31q6 -13 6 -26v-280q0 -6 10 -6q4 1 5 2q45 120 163 121q97 0 149 -97q37 -71 37 -172q0 -153 -78 -226q-46 -43 -108 -43q-119 2 -163 121q-2 6 -12 0q-2 -2 -3 -4 v-49zM185 258q0 -197 117 -232q23 -7 49 -7q44 0 63 108q10 57 10 131q0 185 -42 240q-12 14 -25 15q-121 0 -158 -135q-14 -52 -14 -120z" glyph-name="b" horiz-adv-x="599" unicode="b"/>
<glyph d="M484 135q3 5 11 2q7 -5 6 -10q-34 -88 -107 -122q-31 -14 -62 -14q-199 0 -259 143q-22 55 -22 126q0 200 163 252q53 17 118 17q90 -2 167 -152q2 -4 0 -9l-3 -2l-5 -2q-3 0 -7 5q-76 146 -153 147q-113 0 -145 -141q-11 -51 -11 -115q0 -211 111 -248q22 -7 45 -7 q69 0 121 72q19 27 32 58z" glyph-name="c" horiz-adv-x="532" unicode="c"/>
<glyph d="M175 260q0 -178 48 -236q17 -18 35 -19q99 0 152 93q37 67 37 162q0 144 -78 214q-48 41 -111 41q-47 0 -70 -107q-13 -63 -13 -148zM50 260q0 150 82 224q52 45 121 45q107 0 163 -99q8 -15 15 -31q2 -7 13 -2q2 2 3 4v292q0 35 32 51q13 6 26 6q34 0 51 -31 q6 -13 6 -26v-636q0 -34 -31 -51q-13 -6 -26 -6q-36 0 -52 32q-6 12 -6 25v62q0 6 -10 6q-4 -2 -6 -4q-43 -106 -139 -126q-20 -4 -39 -4q-106 0 -162 97q-41 71 -41 172z" glyph-name="d" horiz-adv-x="632" unicode="d"/>
<glyph d="M490 134q3 4 10 3q6 -5 5 -10q-25 -79 -115 -116q-52 -20 -112 -20q-159 0 -209 138q-20 57 -20 131q0 205 144 255q42 14 93 14q209 -2 234 -219q5 -45 -36 -57q-11 -3 -22 -3h-226q-43 0 -56 -34q-4 -12 -3 -25q13 -173 91 -185q6 -1 11 -1q112 0 175 67q25 28 36 62z M346 262q42 0 55 37q5 13 4 28q-17 188 -119 189q-92 0 -109 -179q0 -7 -1 -14q-3 -41 33 -56q13 -5 26 -5h111z" glyph-name="e" horiz-adv-x="538" unicode="e"/>
<glyph d="M333 750q6 -2 7 -7q-2 -6 -7 -7h-83q-24 0 -25 -114v-17v-42q0 -30 27 -40q8 -3 16 -3h66q5 -1 6 -6q-1 -6 -6 -7h-51q-36 0 -52 -32q-6 -12 -6 -25v-392q0 -36 -32 -52q-12 -6 -25 -6q-36 0 -52 32q-6 13 -6 26v409q0 28 -26 37q-7 3 -14 3h-33q-6 2 -7 7q2 5 7 6h33 q28 0 37 26q3 7 3 14v45q0 105 61 132q29 13 74 13h88z" glyph-name="f" horiz-adv-x="410" unicode="f"/>
<glyph d="M77 -96q1 7 9 8q6 -1 10 -9q19 -51 215 -51q125 2 126 148v122q0 6 -10 6q-4 -2 -6 -4q-41 -100 -132 -121q-20 -4 -41 -4q-197 2 -198 260q1 268 198 269q103 0 157 -96q9 -16 16 -33q2 -6 11 -2q4 2 5 5v61q0 35 32 51q13 6 26 6q34 0 51 -31q6 -13 6 -26v-414 q-2 -210 -240 -211q-221 1 -235 66zM175 260q1 -245 78 -246q98 0 149 91q35 64 35 155q0 145 -77 214q-46 41 -107 41q-78 -2 -78 -255z" glyph-name="g" horiz-adv-x="622" unicode="g"/>
<glyph d="M485 58q0 -37 -33 -53q-12 -5 -24 -6q-36 0 -52 32q-6 13 -6 26v257q-1 189 -29 194q-89 0 -131 -79q-25 -48 -25 -110v-262q0 -36 -32 -52q-12 -6 -25 -6q-36 0 -52 32q-6 13 -6 26v635q0 35 32 51q13 6 26 6q34 0 51 -31q6 -13 6 -26v-266q0 -6 9 -5q4 1 5 3 q37 86 123 99q13 2 25 2q90 0 123 -101q15 -46 15 -109v-257z" glyph-name="h" horiz-adv-x="555" unicode="h"/>
<glyph d="M126 600q-36 0 -54 32q-7 14 -7 29v3q0 36 32 54q14 7 29 7h3q36 0 54 -32q7 -14 7 -29v-3q0 -36 -32 -54q-14 -7 -29 -7h-3zM185 58q0 -36 -32 -52q-12 -6 -25 -6q-36 0 -52 32q-6 13 -6 26v405q0 35 32 51q13 6 26 6q34 0 51 -31q6 -13 6 -26v-405z" glyph-name="i" horiz-adv-x="255" unicode="i"/>
<glyph d="M126 600q-36 0 -54 32q-7 14 -7 29v3q0 36 32 54q14 7 29 7h3q36 0 54 -32q7 -14 7 -29v-3q0 -36 -32 -54q-14 -7 -29 -7h-3zM-15 -82q2 6 7 7h28q6 0 11.5 2.5t10 6.5t8 9.5t6.5 11.5t5 12l4 12t3 10t2 7v4v4v459q0 35 32 51q13 6 26 6q34 0 51 -31q6 -13 6 -26v-451v-7 v-5l-15 -24q-50 -64 -145 -65h-33q-6 2 -7 7z" glyph-name="j" horiz-adv-x="255" unicode="j"/>
<glyph d="M474 62q16 -28 -3 -50q-12 -12 -29 -12h-35q-24 0 -46 23q-5 4 -7 8l-121 208q-10 17 -26 7q-3 -2 -4 -3l-1 -1q-11 -11 -16 -37q-1 -3 -1 -5v-143q0 -34 -31 -51q-13 -6 -26 -6q-36 0 -52 32q-6 13 -6 26v635q0 35 32 51q13 6 26 6q34 0 51 -31q6 -13 6 -26v-293 q0 -43 37 -59q38 -15 69 17l107 113q0 1 3 3.5t7 7t8.5 9.5l9 10t8.5 9l7 7l3 3q2 1 11 0q5 0 4 -5q-1 -2 -1 -3l-34 -36l-6 -6l-79 -84q-24 -24 -17 -56q2 -7 5 -12q29 -51 87 -151z" glyph-name="k" horiz-adv-x="520" unicode="k"/>
<glyph d="M185 57q0 -34 -31 -51q-13 -6 -26 -6q-36 0 -52 32q-6 13 -6 26v635q0 35 32 51q13 6 26 6q34 0 51 -31q6 -13 6 -26v-636z" glyph-name="l" horiz-adv-x="255" unicode="l"/>
<glyph d="M774 58q0 -36 -32 -52q-12 -6 -25 -6q-36 0 -52 32q-6 13 -6 26v257q0 193 -27 194q-91 0 -131 -85q-22 -47 -22 -109v-257q0 -36 -32 -52q-12 -6 -25 -6q-36 0 -52 32q-6 13 -6 26v257q0 193 -27 194q-86 0 -127 -78q-25 -48 -25 -111v-262q0 -36 -32 -52q-12 -6 -25 -6 q-36 0 -52 32q-6 13 -6 26v405q0 35 32 51q13 6 26 6q34 0 51 -31q6 -13 6 -26v-37q0 -6 9 -4q3 1 4 2q36 87 122 99q12 2 24 2q86 0 118 -97l4 -12q0 -1 2 -2.5t4 -2.5t5 -1h5t4 1t2 3q32 90 115 107q18 4 36 4q88 0 120 -99q15 -47 15 -111v-257z" glyph-name="m" horiz-adv-x="839" unicode="m"/>
<glyph d="M485 58q0 -37 -33 -53q-12 -5 -24 -6q-36 0 -52 32q-6 13 -6 26v257q-1 189 -29 194q-89 0 -131 -79q-25 -48 -25 -110v-262q0 -36 -32 -52q-12 -6 -25 -6q-36 0 -52 32q-6 13 -6 26v405q0 35 32 51q13 6 26 6q34 0 51 -31q6 -13 6 -26v-36q0 -6 9 -5q4 1 5 3 q37 86 123 99q13 2 25 2q90 0 123 -101q15 -46 15 -109v-257z" glyph-name="n" unicode="n"/>
<glyph d="M175 260q0 -221 92 -252q14 -4 28 -4q88 0 112 144q8 50 8 112q0 221 -92 252q-14 4 -28 4q-88 0 -112 -144q-8 -50 -8 -112zM50 260q0 204 148 254q44 15 97 15q179 0 228 -152q17 -52 17 -117q0 -204 -148 -254q-44 -15 -97 -15q-179 0 -228 152q-17 52 -17 117z" glyph-name="o" horiz-adv-x="590" unicode="o"/>
<glyph d="M185 -97q0 -37 -33 -53q-12 -5 -24 -6q-36 -1 -52 31q-6 13 -6 26v560q0 35 32 51q13 6 26 6q34 0 51 -31q6 -13 6 -26v-50q0 -6 10 -6q4 1 5 2q45 120 163 121q97 0 149 -97q37 -71 37 -172q0 -153 -78 -226q-46 -43 -108 -43q-119 2 -163 121q-2 6 -12 0q-2 -2 -3 -4 v-204zM185 258q0 -204 116 -246q26 -9 56 -9q40 0 58 118q9 60 9 137q0 185 -42 240q-12 14 -25 15q-121 0 -158 -135q-14 -52 -14 -120z" glyph-name="p" horiz-adv-x="599" unicode="p"/>
<glyph d="M175 260q0 -178 48 -236q17 -18 35 -19q99 0 152 93q37 67 37 162q0 144 -78 214q-48 41 -111 41q-47 0 -70 -107q-13 -63 -13 -148zM50 260q0 150 82 224q52 45 121 45q107 0 163 -99q8 -15 15 -31q2 -7 13 -2q2 2 3 4v62q0 35 32 51q13 6 26 6q34 0 51 -31q6 -13 6 -26 v-561q0 -34 -31 -51q-13 -6 -26 -6q-36 0 -52 32q-6 12 -6 25v217q0 6 -10 6q-4 -2 -6 -4q-43 -106 -139 -126q-20 -4 -39 -4q-106 0 -162 97q-41 71 -41 172z" glyph-name="q" horiz-adv-x="632" unicode="q"/>
<glyph d="M350 507q-1 -5 -6 -6h-6q-152 -2 -153 -271v-172q0 -36 -32 -52q-12 -6 -25 -6q-36 0 -52 32q-6 13 -6 26v405q0 35 32 51q13 6 26 6q34 0 51 -31q6 -13 6 -26v-74q0 -2 2.5 -3t5.5 -1t3 2q38 132 144 133h5q4 -2 5 -5v-8z" glyph-name="r" horiz-adv-x="370" unicode="r"/>
<glyph d="M54 126h-1l-6 12l5 3l6 2l1 1q4 -1 6 -5q34 -81 124 -114q43 -16 89 -16q61 0 87 60q12 28 12 63q0 47 -77 68q-21 6 -45 9q-146 18 -186 109q-12 28 -12 60q0 82 81 122q51 25 119 25q88 0 156 -75q24 -28 40 -60l3 -5q1 -5 -3 -9h-1q-8 -2 -11 2q-41 87 -118 120 q-32 14 -64 14q-57 0 -80 -61q-11 -29 -11 -64q0 -46 70 -67q21 -6 46 -9q158 -19 198 -112q12 -26 12 -56q0 -81 -84 -121q-55 -26 -130 -26q-112 0 -185 72q-26 27 -41 58z" glyph-name="s" horiz-adv-x="524" unicode="s"/>
<glyph d="M309 520q5 -1 6 -6q-1 -6 -6 -7h-49q-34 0 -49 -31q-6 -12 -6 -24v-307q0 -130 5 -131h98q6 -2 7 -7q-2 -6 -7 -7h-105q-78 0 -98 33q-15 26 -15 112v322q0 28 -26 37q-7 3 -14 3h-33q-6 2 -7 7q2 5 7 6h33q28 0 37 26q3 7 3 14v66q0 19 17 42l5 5l36 30q22 19 44 2 q12 -11 13 -29v-101q0 -34 31 -49q12 -6 24 -6h49z" glyph-name="t" horiz-adv-x="345" unicode="t"/>
<glyph d="M480 58q0 -36 -32 -52q-12 -6 -25 -6h-7q-32 0 -46 29q-5 11 -5 22v16q0 5 -8 4q-3 -1 -4 -2q-43 -73 -126 -78q-112 0 -145 84q-17 46 -17 125v263q0 35 32 51q13 6 26 6q34 0 51 -31q6 -13 6 -26v-263q0 -161 33 -187q9 -6 19 -6q82 0 116 67q17 33 17 74v315 q0 35 32 51q13 6 26 6q34 0 51 -31q6 -13 6 -26v-405z" glyph-name="u" unicode="u"/>
<glyph d="M36 470l1 1q-1 1 -15 46q1 3 3 4h108h18q0 -1 12 -43l69 -256q10 -39 49 -45q39 -7 61 25q5 9 8 17l79 251q-1 1 9 30l3 10q5 9 13 10h10q-1 -1 -17 -50l-140 -428q-8 -26 -39 -38q-11 -4 -20 -4h-14q-30 0 -51 27q-6 8 -8 15z" glyph-name="v" horiz-adv-x="482" unicode="v"/>
<glyph d="M31 470l1 1q-2 1 -12 46q1 3 3 4h105q11 -1 16 -12l2 -13l4 -22l42 -225q6 -32 38 -38q33 -6 50 21q4 7 6 14l55 227q7 29 38 43q11 4 21 4h3q32 0 52 -30q6 -9 8 -18l51 -226q8 -35 43 -40t53 24q5 8 7 16l52 224q0 1 7 30l3 11q3 8 12 9h9l-12 -50l-104 -424 q-7 -30 -39 -42q-10 -4 -19 -4q-31 0 -50 29q-6 9 -8 17l-48 199q-10 39 -49 46q-39 6 -61 -25q-6 -10 -9 -21l-49 -199q-7 -30 -39 -42q-10 -4 -19 -4q-31 0 -50 29q-6 9 -8 17z" glyph-name="w" horiz-adv-x="737" unicode="w"/>
<glyph d="M39 0q-1 1 -1 3q15 19 34 47q17 22 49 67q44 61 66 91q16 23 8 55q-3 8 -6 13l-138 199q-5 5 -18 25q-7 10 -10 14q-2 5 2 6h131q3 -1 5 -2l1 -3l28 -40l4 -5l45 -64q23 -34 59 -24q19 7 31 23l77 106q7 8 17 9h7q1 -1 1 -3q-15 -19 -34 -47q-19 -26 -86 -118 q-13 -17 -5 -41q2 -5 4 -8l178 -258q5 -5 18 -25q7 -10 10 -14q2 -5 -2 -6h-131q-3 1 -4 3l-2 2l-28 40l-4 5l-74 107q-24 36 -64 26q-21 -6 -36 -25l-108 -149q-7 -8 -16 -9h-8z" glyph-name="x" horiz-adv-x="525" unicode="x"/>
<glyph d="M244 -76l-1 2q-31 -87 -73 -111q-28 -15 -76 -15h-42q-7 1 -8 7q2 7 8 8h42q66 0 96 39q20 26 39 78l3 7q0 12 -1 15l-198 505q-13 34 13 53q13 8 28 8h52q11 -1 18 -12l5 -13l9 -24l75 -196q15 -39 54 -41t57 33q2 6 4 10l68 198l13 36q3 8 13 9q7 -1 7 -9l-146 -418z " glyph-name="y" horiz-adv-x="462" unicode="y"/>
<glyph d="M390 163q1 2 4 3h43q2 -1 3 -3q-1 -3 -3 -4h-43q-3 1 -4 4zM52 507q-6 2 -7 7q2 5 7 6h367q4 -2 5 -5q-1 -4 -7 -5q-134 -3 -272 -3h-93zM30 6q0 1 0.5 3t1.5 5l1 2l237 455q9 19 38 30q7 3 13 3l34 2q30 1 39 -25q5 -17 -3 -33l-214 -400q-9 -16 -34 -28l-9 -3 q-2 -1 3 -4q50 1 295 1q6 -1 8 -7q-2 -6 -7 -7h-397q-6 0 -6 6z" glyph-name="z" horiz-adv-x="460" unicode="z"/>
<glyph d="M280 750q24 0 31 -22q1 -6 1 -10q0 -24 -22 -31q-6 -1 -10 -1h-38q-31 0 -40 -38q-2 -10 -2 -20v-211q-1 -68 -36 -93q-5 -5 0 -12q36 -26 36 -93v-211q0 -47 31 -56q6 -2 11 -2h38q22 0 30 -22q2 -6 2 -11q0 -22 -21 -30q-6 -2 -11 -2h-38q-74 0 -104 61q-13 28 -13 62 v226q-2 47 -49 54q-15 3 -20 18q-1 3 -1 5v13q0 14 16 21q3 1 5 2q48 8 49 54v226q0 79 59 110q27 13 58 13h38z" glyph-name="braceleft" horiz-adv-x="342" unicode="{"/>
<glyph d="M45 763q0 25 24 34q7 3 14 3q24 0 34 -23q3 -7 3 -14v-976q0 -24 -23 -34q-7 -3 -14 -3q-26 0 -35 23q-3 8 -3 14v976z" glyph-name="bar" horiz-adv-x="165" unicode="|"/>
<glyph d="M30 718q0 22 21 30q6 2 11 2l38 -1q74 0 104 -61q13 -28 13 -62v-226q2 -47 49 -54q15 -3 20 -18q1 -3 1 -5v-13q0 -14 -16 -21q-3 -1 -5 -2q-48 -8 -49 -54v-226q0 -79 -59 -110q-27 -13 -58 -13h-37q-23 0 -31 22q-2 5 -2 10q0 23 22 31q6 2 11 2h37q31 0 40 38 q2 9 2 20v211q1 68 36 93q5 5 0 12q-36 26 -36 93v211q0 47 -31 56q-6 2 -11 2h-37q-23 0 -31 22q-2 6 -2 11z" glyph-name="braceright" horiz-adv-x="342" unicode="}"/>
<glyph d="M91 281q-1 -16 -17 -20q-2 -1 -4 -1l-22 1q-36 0 -39 29q-1 6 0 12q12 89 65 112q5 2 9 3q20 7 23 -17v-2l1 -12l-4 33q50 0 125 -77l1 -1q2 -2 3 -1l3 3q11 9 14 46q2 17 18 20q2 1 4 1h22q38 0 40 -32q0 -5 -1 -9q-12 -89 -66 -112q-28 -12 -32 21v2l-1 16l-4 45l8 -90 q-29 0 -74 43q-38 34 -52 35q-16 -2 -20 -48z" glyph-name="asciitilde" horiz-adv-x="340" unicode="~"/>
<glyph glyph-name="nbspace" horiz-adv-x="220" unicode=" "/>
<glyph d="M51 689q0 36 32 54q14 7 29 7h3q36 0 54 -32q7 -14 7 -29v-3q0 -36 -32 -54q-14 -7 -29 -7h-3q-36 0 -54 32q-7 14 -7 29v3zM106 0q-36 0 -54 32q-7 14 -7 29v242l1 13l45 207q6 15 22 17q15 0 20 -14q1 -2 1 -3l45 -207l1 -13v-242q0 -36 -32 -54q-14 -7 -29 -7h-13z " glyph-name="exclamdown" horiz-adv-x="225" unicode="¡"/>
<glyph d="M294 562q0 23 22 31q6 2 11 2l6 1q25 0 34 -23q2 -7 2 -13v-10q0 -15 17 -34q3 -3 5 -4q59 -37 108 -135q2 -5 -1 -8l-3 -2l-5 -2q-3 0 -7 3q-47 92 -96 128q-15 9 -18 -7q-1 -4 -1 -6v-446q0 -20 13 -19q5 1 9 3q58 32 91 110q4 8 12 6q7 -4 4 -14q-33 -81 -99 -115 q-16 -9 -26 -32q-3 -6 -3 -10v-6q0 -24 -23 -33q-6 -2 -12 -2h-6q-24 0 -32 22q-2 6 -2 11q0 22 -22 34q-6 3 -10 4q-172 28 -205 188q-7 36 -7 76q0 199 163 252q24 8 49 12q21 4 30 26q2 7 2 12zM258 27q24 -16 33 6q3 7 3 16v427q0 28 -19 28q-8 0 -17 -6 q-83 -54 -83 -236q1 -182 83 -235z" glyph-name="cent" horiz-adv-x="532" unicode="¢"/>
<glyph d="M377 443q11 17 40 25q7 2 11 2h17q22 0 27 -20q1 -11 -5 -22l-89 -134q-16 -22 -6 -55q3 -8 6 -13l89 -134q14 -21 -3 -36q-9 -6 -19 -6h-17q-21 0 -44 20q-5 4 -7 7l-99 149q-16 22 -6 55q3 8 6 13zM192 443q11 17 40 25q7 2 11 2h17q22 0 27 -20q1 -11 -5 -22l-89 -134 q-16 -22 -6 -55q3 -8 6 -13l89 -134q14 -21 -3 -36q-9 -6 -19 -6h-17q-21 0 -44 20q-5 4 -7 7l-99 149q-16 22 -6 55q3 8 6 13z" glyph-name="guillemotleft" horiz-adv-x="565" unicode="«"/>
<glyph d="M367 115q-1 -8 -8 -9q-8 2 -9 9v80q0 36 -32 54q-14 7 -29 7h-232q-6 2 -7 7q2 6 7 7h249q36 0 54 -32q7 -14 7 -29v-94z" glyph-name="logicalnot" horiz-adv-x="417" unicode="¬"/>
<glyph d="M171 600q-30 0 -37 26q-3 12 1 24l21 59q8 25 38 37q11 4 20 4h31q32 0 40 -27q5 -19 -6 -36l-38 -59q-11 -17 -40 -26q-7 -2 -11 -2h-19z" glyph-name="acute" horiz-adv-x="340" unicode="´"/>
<glyph d="M111 198q-36 0 -54 32q-7 14 -7 29v3q0 36 32 54q14 7 29 7h3q36 0 54 -32q7 -14 7 -29v-3q0 -36 -32 -54q-14 -7 -29 -7h-3z" glyph-name="periodcentered" horiz-adv-x="225" unicode="·"/>
<glyph d="M265 428q-14 21 3 36q9 6 19 6h17q21 0 44 -20q5 -4 7 -7l99 -149q16 -22 6 -55q-3 -8 -6 -13l-99 -149q-11 -17 -40 -25q-7 -2 -11 -2h-17q-22 0 -27 20q-1 11 5 22l89 134q16 22 6 55q-3 8 -6 13zM80 428q-14 21 3 36q9 6 19 6h17q21 0 44 -20q5 -4 7 -7l99 -149 q16 -22 6 -55q-3 -8 -6 -13l-99 -149q-11 -17 -40 -25q-7 -2 -11 -2h-17q-22 0 -27 20q-1 11 5 22l89 134q16 22 6 55q-3 8 -6 13z" glyph-name="guillemotright" horiz-adv-x="547" unicode="»"/>
<glyph d="M250 750q36 0 54 -32q7 -14 7 -29v-3q0 -36 -32 -54q-14 -7 -29 -7h-3q-36 0 -54 32q-7 14 -7 29v3q0 36 32 54q14 7 29 7h3zM445 200q60 -13 44 -61q-31 -90 -132 -128q-53 -20 -116 -20q-135 0 -201 83q-40 52 -40 121q0 78 69 142q24 21 55 43q49 34 60 69q6 18 8 43 q2 28 29 43q11 5 20 5h8q38 0 50 -34q4 -11 4 -22q-5 -87 -40 -129q-20 -24 -58 -50q-78 -55 -84 -99q-1 -6 -1 -11q0 -72 60 -101q28 -13 61 -13q87 0 128 65q7 13 12 26q6 17 28 28q11 4 18 3z" glyph-name="questiondown" unicode="¿"/>
<glyph d="M375 830q-22 0 -44 20q-5 5 -7 8l-39 59q-18 28 3 50q12 13 31 13h32q27 0 48 -26q6 -8 9 -15l22 -59q10 -29 -14 -44q-10 -6 -21 -6h-20zM513 252q0 -6 -5 -7l-313 1q-28 0 -50 -26q-5 -8 -8 -14l-58 -155q-6 -14 -16 -41q-3 -8 -12 -9h-7h-5q1 2 9 25q10 26 104 276 q152 404 154 407l8 21q6 16 25 20q3 1 5 1h75q27 0 49 -26q5 -8 8 -14l251 -663l9 -22q2 -4 3.5 -8t2.5 -6.5t1.5 -5t0.5 -4.5l1 -1l-2 -1q-2 1 -3 1h-112q-18 2 -27 18l-7 19l-5 12q-15 43 -49 131l-27 72v-1zM188 344q-16 -42 15 -68q18 -15 43 -15h175q43 0 58 35 q9 23 0 48l-88 234q-14 40 -54 42t-58 -34q-2 -4 -3 -7z" glyph-name="Agrave" horiz-adv-x="754" unicode="À"/>
<glyph d="M395 830q-30 0 -37 26q-3 12 1 24l21 59q8 25 38 37q11 4 20 4h31q32 0 40 -27q5 -19 -6 -36l-38 -59q-11 -17 -40 -26q-7 -2 -11 -2h-19zM513 252q0 -6 -5 -7l-313 1q-28 0 -50 -26q-5 -8 -8 -14l-58 -155q-6 -14 -16 -41q-3 -8 -12 -9h-7h-5q1 2 9 25q10 26 104 276 q152 404 154 407l8 21q6 16 25 20q3 1 5 1h75q27 0 49 -26q5 -8 8 -14l251 -663l9 -22q2 -4 3.5 -8t2.5 -6.5t1.5 -5t0.5 -4.5l1 -1l-2 -1q-2 1 -3 1h-112q-18 2 -27 18l-7 19l-5 12q-15 43 -49 131l-27 72v-1zM188 344q-16 -42 15 -68q18 -15 43 -15h175q43 0 58 35 q9 23 0 48l-88 234q-14 40 -54 42t-58 -34q-2 -4 -3 -7z" glyph-name="Aacute" horiz-adv-x="754" unicode="Á"/>
<glyph d="M403 887q-9 3 -14 -2l-2 -2l-40 -37q-17 -12 -42 -16h-28q-23 0 -27 20q-2 12 5 22l63 83q12 16 40 24q6 1 9 1h54q20 0 43 -19q4 -3 6 -6l63 -83q14 -20 -2 -35q-9 -7 -19 -7h-22h-3h-3h-4h-3h-3h-3h-3h-9l-30 36q-16 16 -26 21zM513 252q0 -6 -5 -7l-313 1 q-28 0 -50 -26q-5 -8 -8 -14l-58 -155q-6 -14 -16 -41q-3 -8 -12 -9h-7h-5q1 2 9 25q10 26 104 276q152 404 154 407l8 21q6 16 25 20q3 1 5 1h75q27 0 49 -26q5 -8 8 -14l251 -663l9 -22q2 -4 3.5 -8t2.5 -6.5t1.5 -5t0.5 -4.5l1 -1l-2 -1q-2 1 -3 1h-112q-18 2 -27 18 l-7 19l-5 12q-15 43 -49 131l-27 72v-1zM188 344q-16 -42 15 -68q18 -15 43 -15h175q43 0 58 35q9 23 0 48l-88 234q-14 40 -54 42t-58 -34q-2 -4 -3 -7z" glyph-name="Acircumflex" horiz-adv-x="754" unicode="Â"/>
<glyph d="M315 851q-1 -16 -17 -20q-2 -1 -4 -1l-22 1q-36 0 -39 29q-1 6 0 12q12 89 65 112q5 2 9 3q20 7 23 -17v-2l1 -12l-4 33q50 0 125 -77l1 -1q2 -2 3 -1l3 3q11 9 14 46q2 17 18 20q2 1 4 1h22q38 0 40 -32q0 -5 -1 -9q-12 -89 -66 -112q-28 -12 -32 21v2l-1 16l-4 45 l8 -90q-29 0 -74 43q-38 34 -52 35q-16 -2 -20 -48zM514 253q0 -6 -5 -7l-313 1q-28 0 -50 -26q-5 -8 -8 -14l-58 -155q-6 -14 -16 -41q-3 -8 -12 -9h-7h-5q1 2 9 25q10 26 104 276q152 404 154 407l8 21q6 16 25 20q3 1 5 1h75q27 0 49 -26q5 -8 8 -14l251 -663l9 -22 q2 -4 3.5 -8t2.5 -6.5t1.5 -5t1.5 -3.5v-2l-2 -1q-2 1 -3 1h-112q-18 2 -27 18l-7 19l-5 12q-15 43 -49 131l-27 72v-1zM189 345q-16 -42 15 -68q18 -15 43 -15h175q43 0 58 35q9 23 0 48l-88 234q-14 40 -54 42t-58 -34q-2 -4 -3 -7z" glyph-name="Atilde" horiz-adv-x="754" unicode="Ã"/>
<glyph d="M473 830q-36 0 -54 32q-7 14 -7 29v3q0 36 32 54q14 7 29 7h3q36 0 54 -32q7 -14 7 -29v-3q0 -36 -32 -54q-14 -7 -29 -7h-3zM312 830q-36 0 -54 32q-7 14 -7 29v3q0 36 32 54q14 7 29 7h3q36 0 54 -32q7 -14 7 -29v-3q0 -36 -32 -54q-14 -7 -29 -7h-3zM513 252 q0 -6 -5 -7l-313 1q-28 0 -50 -26q-5 -8 -8 -14l-58 -155q-6 -14 -16 -41q-3 -8 -12 -9h-7h-5q1 2 9 25q10 26 104 276q152 404 154 407l8 21q6 16 25 20q3 1 5 1h75q27 0 49 -26q5 -8 8 -14l251 -663l9 -22q2 -4 3.5 -8t2.5 -6.5t1.5 -5t0.5 -4.5l1 -1l-2 -1q-2 1 -3 1 h-112q-18 2 -27 18l-7 19l-5 12q-15 43 -49 131l-27 72v-1zM188 344q-16 -42 15 -68q18 -15 43 -15h175q43 0 58 35q9 23 0 48l-88 234q-14 40 -54 42t-58 -34q-2 -4 -3 -7z" glyph-name="Adieresis" horiz-adv-x="754" unicode="Ä"/>
<glyph d="M366 915q2 -31 28 -32q28 2 29 32q-2 30 -29 31q-27 -2 -28 -31zM309 915q0 69 60 82q12 2 25 2q69 0 83 -58q3 -13 3 -26q-2 -84 -86 -85q-84 2 -85 85zM513 252q0 -6 -5 -7l-313 1q-28 0 -50 -26q-5 -8 -8 -14l-58 -155q-6 -14 -16 -41q-3 -8 -12 -9h-7h-5q1 2 9 25 q10 26 104 276q152 404 154 407l8 21q6 16 25 20q3 1 5 1h75q27 0 49 -26q5 -8 8 -14l251 -663l9 -22q2 -4 3.5 -8t2.5 -6.5t1.5 -5t0.5 -4.5l1 -1l-2 -1q-2 1 -3 1h-112q-18 2 -27 18l-7 19l-5 12q-15 43 -49 131l-27 72v-1zM188 344q-16 -42 15 -68q18 -15 43 -15h175 q43 0 58 35q9 23 0 48l-88 234q-14 40 -54 42t-58 -34q-2 -4 -3 -7z" glyph-name="Aring" horiz-adv-x="754" unicode="Å"/>
<glyph d="M352 -92l1 1q-25 -1 -33 -10q-3 -2 -4 -2q-2 1 -2 3l24 48q12 26 -10 50q-10 9 -20 13q-136 43 -206 170q-49 90 -49 195q0 156 98 265q111 117 275 119q92 0 181 -88q36 -37 64 -83q4 -4 2 -11l-4 -3l-4 -3q-3 -1 -9 5q-66 108 -156 149q-39 18 -74 18q-106 0 -173 -113 q-63 -105 -63 -255q0 -169 77 -277q66 -90 159 -91q97 0 176 85q33 37 55 82q5 6 12 2q6 -6 3 -14q-48 -102 -143 -147q-51 -24 -103 -24q-26 0 -50 3q-9 -1 -13 -8l-38 -79l1 -1q11 9 28 9q72 0 93 -37q6 -11 6 -22q0 -70 -54 -97q-21 -10 -47 -10q-35 0 -42 44 q-2 14 -1 31l3 6q2 0 3 -1q0 -20 26 -24q4 -1 8 -1q29 0 37 34q2 9 2 18q0 45 -30 50q-3 1 -6 1z" glyph-name="Ccedilla" horiz-adv-x="695" unicode="Ç"/>
<glyph d="M312 830q-22 0 -44 20q-5 5 -7 8l-39 59q-18 28 3 50q12 13 31 13h32q27 0 48 -26q6 -8 9 -15l22 -59q10 -29 -14 -44q-10 -6 -21 -6h-20zM582 16q6 -1 8 -8q-1 -6 -8 -8h-434q-36 0 -54 32q-7 14 -7 29v628q0 36 32 54q14 7 29 7h419q6 -1 8 -8q-1 -6 -8 -8h-291 q-36 0 -54 -32q-7 -14 -7 -29v-218q0 -36 32 -54q14 -7 29 -7h272q6 -2 7 -7q-2 -6 -7 -7h-272q-36 0 -54 -32q-7 -14 -7 -29v-242q0 -36 32 -54q14 -7 29 -7h306z" glyph-name="Egrave" horiz-adv-x="640" unicode="È"/>
<glyph d="M332 830q-30 0 -37 26q-3 12 1 24l21 59q8 25 38 37q11 4 20 4h31q32 0 40 -27q5 -19 -6 -36l-38 -59q-11 -17 -40 -26q-7 -2 -11 -2h-19zM582 16q6 -1 8 -8q-1 -6 -8 -8h-434q-36 0 -54 32q-7 14 -7 29v628q0 36 32 54q14 7 29 7h419q6 -1 8 -8q-1 -6 -8 -8h-291 q-36 0 -54 -32q-7 -14 -7 -29v-218q0 -36 32 -54q14 -7 29 -7h272q6 -2 7 -7q-2 -6 -7 -7h-272q-36 0 -54 -32q-7 -14 -7 -29v-242q0 -36 32 -54q14 -7 29 -7h306z" glyph-name="Eacute" horiz-adv-x="640" unicode="É"/>
<glyph d="M340 887q-9 3 -14 -2l-2 -2l-40 -37q-17 -12 -42 -16h-28q-23 0 -27 20q-2 12 5 22l63 83q12 16 40 24q6 1 9 1h54q20 0 43 -19q4 -3 6 -6l63 -83q14 -20 -2 -35q-9 -7 -19 -7h-22h-3h-3h-4h-3h-3h-3h-3h-9l-30 36q-16 16 -26 21zM582 16q6 -1 8 -8q-1 -6 -8 -8h-434 q-36 0 -54 32q-7 14 -7 29v628q0 36 32 54q14 7 29 7h419q6 -1 8 -8q-1 -6 -8 -8h-291q-36 0 -54 -32q-7 -14 -7 -29v-218q0 -36 32 -54q14 -7 29 -7h272q6 -2 7 -7q-2 -6 -7 -7h-272q-36 0 -54 -32q-7 -14 -7 -29v-242q0 -36 32 -54q14 -7 29 -7h306z" glyph-name="Ecircumflex" horiz-adv-x="640" unicode="Ê"/>
<glyph d="M410 830q-36 0 -54 32q-7 14 -7 29v3q0 36 32 54q14 7 29 7h3q36 0 54 -32q7 -14 7 -29v-3q0 -36 -32 -54q-14 -7 -29 -7h-3zM249 830q-36 0 -54 32q-7 14 -7 29v3q0 36 32 54q14 7 29 7h3q36 0 54 -32q7 -14 7 -29v-3q0 -36 -32 -54q-14 -7 -29 -7h-3zM582 16q6 -1 8 -8 q-1 -6 -8 -8h-434q-36 0 -54 32q-7 14 -7 29v628q0 36 32 54q14 7 29 7h419q6 -1 8 -8q-1 -6 -8 -8h-291q-36 0 -54 -32q-7 -14 -7 -29v-218q0 -36 32 -54q14 -7 29 -7h272q6 -2 7 -7q-2 -6 -7 -7h-272q-36 0 -54 -32q-7 -14 -7 -29v-242q0 -36 32 -54q14 -7 29 -7h306z" glyph-name="Edieresis" horiz-adv-x="640" unicode="Ë"/>
<glyph d="M133 830q-22 0 -44 20q-5 5 -7 8l-39 59q-18 28 3 50q12 13 31 13h32q27 0 48 -26q6 -8 9 -15l22 -59q10 -29 -14 -44q-10 -6 -21 -6h-20zM216 61q0 -36 -32 -54q-14 -7 -29 -7h-6q-36 0 -54 32q-7 14 -7 29v628q0 36 32 54q14 7 29 7h6q36 0 54 -32q7 -14 7 -29v-628z " glyph-name="Igrave" horiz-adv-x="301" unicode="Ì"/>
<glyph d="M153 830q-30 0 -37 26q-3 12 1 24l21 59q8 25 38 37q11 4 20 4h31q32 0 40 -27q5 -19 -6 -36l-38 -59q-11 -17 -40 -26q-7 -2 -11 -2h-19zM216 61q0 -36 -32 -54q-14 -7 -29 -7h-6q-36 0 -54 32q-7 14 -7 29v628q0 36 32 54q14 7 29 7h6q36 0 54 -32q7 -14 7 -29v-628z " glyph-name="Iacute" horiz-adv-x="301" unicode="Í"/>
<glyph d="M161 887q-9 3 -14 -2l-2 -2l-40 -37q-17 -12 -42 -16h-28q-23 0 -27 20q-2 12 5 22l63 83q12 16 40 24q6 1 9 1h54q20 0 43 -19q4 -3 6 -6l63 -83q14 -20 -2 -35q-9 -7 -19 -7h-22h-3h-3h-4h-3h-3h-3h-3h-9l-30 36q-16 16 -26 21zM216 61q0 -36 -32 -54q-14 -7 -29 -7h-6 q-36 0 -54 32q-7 14 -7 29v628q0 36 32 54q14 7 29 7h6q36 0 54 -32q7 -14 7 -29v-628z" glyph-name="Icircumflex" horiz-adv-x="301" unicode="Î"/>
<glyph d="M231 830q-36 0 -54 32q-7 14 -7 29v3q0 36 32 54q14 7 29 7h3q36 0 54 -32q7 -14 7 -29v-3q0 -36 -32 -54q-14 -7 -29 -7h-3zM70 830q-36 0 -54 32q-7 14 -7 29v3q0 36 32 54q14 7 29 7h3q36 0 54 -32q7 -14 7 -29v-3q0 -36 -32 -54q-14 -7 -29 -7h-3zM216 61 q0 -36 -32 -54q-14 -7 -29 -7h-6q-36 0 -54 32q-7 14 -7 29v628q0 36 32 54q14 7 29 7h6q36 0 54 -32q7 -14 7 -29v-628z" glyph-name="Idieresis" horiz-adv-x="301" unicode="Ï"/>
<glyph d="M270 851q-1 -16 -17 -20q-2 -1 -4 -1l-22 1q-36 0 -39 29q-1 6 0 12q12 89 65 112q5 2 9 3q20 7 23 -17v-2l1 -12l-4 33q50 0 125 -77l1 -1q2 -2 3 -1l3 3q11 9 14 46q2 17 18 20q2 1 4 1h22q38 0 40 -32q0 -5 -1 -9q-12 -89 -66 -112q-28 -12 -32 21v2l-1 16l-4 45 l8 -90q-29 0 -74 43q-38 34 -52 35q-16 -2 -20 -48zM134 11q-1 -9 -9 -10q-9 2 -10 10v679q0 36 32 54q14 7 29 7h41q27 0 49 -25q5 -7 8 -13l173 -411q16 -38 58 -36q39 1 54 34q6 13 6 26v416q2 8 10 9q8 -2 9 -9v-680q0 -36 -32 -54q-14 -7 -29 -7h-51q-27 0 -49 25 q-5 7 -8 13l-163 387q-16 38 -58 36q-39 -1 -54 -34q-6 -13 -6 -26v-391z" glyph-name="Ntilde" horiz-adv-x="668" unicode="Ñ"/>
<glyph d="M389 830q-22 0 -44 20q-5 5 -7 8l-39 59q-18 28 3 50q12 13 31 13h32q27 0 48 -26q6 -8 9 -15l22 -59q10 -29 -14 -44q-10 -6 -21 -6h-20zM194 375q0 -203 85 -304q55 -63 129 -64q103 0 163 115q51 100 51 253q0 180 -77 287q-59 80 -137 81q-92 0 -153 -105 q-61 -106 -61 -263zM57 375q0 166 102 276q101 108 249 108t249 -108q102 -111 102 -276q0 -189 -113 -295q-95 -89 -238 -89q-169 0 -267 120q-84 104 -84 264z" glyph-name="Ograve" horiz-adv-x="814" unicode="Ò"/>
<glyph d="M409 830q-30 0 -37 26q-3 12 1 24l21 59q8 25 38 37q11 4 20 4h31q32 0 40 -27q5 -19 -6 -36l-38 -59q-11 -17 -40 -26q-7 -2 -11 -2h-19zM194 375q0 -203 85 -304q55 -63 129 -64q103 0 163 115q51 100 51 253q0 180 -77 287q-59 80 -137 81q-92 0 -153 -105 q-61 -106 -61 -263zM57 375q0 166 102 276q101 108 249 108t249 -108q102 -111 102 -276q0 -189 -113 -295q-95 -89 -238 -89q-169 0 -267 120q-84 104 -84 264z" glyph-name="Oacute" horiz-adv-x="814" unicode="Ó"/>
<glyph d="M417 887q-9 3 -14 -2l-2 -2l-40 -37q-17 -12 -42 -16h-28q-23 0 -27 20q-2 12 5 22l63 83q12 16 40 24q6 1 9 1h54q20 0 43 -19q4 -3 6 -6l63 -83q14 -20 -2 -35q-9 -7 -19 -7h-22h-3h-3h-4h-3h-3h-3h-3h-9l-30 36q-16 16 -26 21zM194 375q0 -203 85 -304q55 -63 129 -64 q103 0 163 115q51 100 51 253q0 180 -77 287q-59 80 -137 81q-92 0 -153 -105q-61 -106 -61 -263zM57 375q0 166 102 276q101 108 249 108t249 -108q102 -111 102 -276q0 -189 -113 -295q-95 -89 -238 -89q-169 0 -267 120q-84 104 -84 264z" glyph-name="Ocircumflex" horiz-adv-x="814" unicode="Ô"/>
<glyph d="M329 851q-1 -16 -17 -20q-2 -1 -4 -1l-22 1q-36 0 -39 29q-1 6 0 12q12 89 65 112q5 2 9 3q20 7 23 -17v-2l1 -12l-4 33q50 0 125 -77l1 -1q2 -2 3 -1l3 3q11 9 14 46q2 17 18 20q2 1 4 1h22q38 0 40 -32q0 -5 -1 -9q-12 -89 -66 -112q-28 -12 -32 21v2l-1 16l-4 45 l8 -90q-29 0 -74 43q-38 34 -52 35q-16 -2 -20 -48zM195 376q0 -203 85 -304q55 -63 129 -64q103 0 163 115q51 100 51 253q0 180 -77 287q-59 80 -137 81q-92 0 -153 -105q-61 -106 -61 -263zM58 376q0 166 102 276q101 108 249 108t249 -108q102 -111 102 -276 q0 -189 -113 -295q-95 -89 -238 -89q-169 0 -267 120q-84 104 -84 264z" glyph-name="Otilde" horiz-adv-x="814" unicode="Õ"/>
<glyph d="M487 830q-36 0 -54 32q-7 14 -7 29v3q0 36 32 54q14 7 29 7h3q36 0 54 -32q7 -14 7 -29v-3q0 -36 -32 -54q-14 -7 -29 -7h-3zM326 830q-36 0 -54 32q-7 14 -7 29v3q0 36 32 54q14 7 29 7h3q36 0 54 -32q7 -14 7 -29v-3q0 -36 -32 -54q-14 -7 -29 -7h-3zM194 375 q0 -203 85 -304q55 -63 129 -64q103 0 163 115q51 100 51 253q0 180 -77 287q-59 80 -137 81q-92 0 -153 -105q-61 -106 -61 -263zM57 375q0 166 102 276q101 108 249 108t249 -108q102 -111 102 -276q0 -189 -113 -295q-95 -89 -238 -89q-169 0 -267 120q-84 104 -84 264z " glyph-name="Odieresis" horiz-adv-x="814" unicode="Ö"/>
<glyph d="M57 375h-1q0 166 102 276q100 108 248 108q103 -1 185 -53q20 -13 45 -3q8 4 12 8l21 26q10 13 39 21q5 1 8 1h7q15 0 17 -14q0 -7 -4 -13l-44 -54q-16 -19 -6 -57q2 -10 6 -16q67 -101 67 -230q0 -189 -113 -295q-95 -89 -238 -89q-105 1 -188 50q-20 13 -45 2 q-7 -4 -11 -8l-18 -22q-10 -13 -39 -21q-5 -1 -8 -1h-6q-16 0 -18 14q0 7 5 13l40 50q16 18 6 56q-2 10 -6 16q-63 96 -63 235zM545 586q24 29 8 60q-1 3 -2 4q-62 92 -145 93q-92 0 -153 -105q-61 -106 -61 -263q0 -87 17 -158q3 -15 17 -13q5 1 9 5zM601 530q-4 15 -17 13 q-5 -2 -9 -6l-311 -378q-26 -34 -7 -63q61 -89 149 -90q103 0 163 115q51 100 51 253q0 82 -19 156z" glyph-name="Oslash" horiz-adv-x="814" unicode="Ø"/>
<glyph d="M333 821q-22 0 -44 20q-5 5 -7 8l-39 59q-18 28 3 50q12 13 31 13h32q27 0 48 -26q6 -8 9 -15l22 -59q10 -29 -14 -44q-10 -6 -21 -6h-20zM605 741q2 8 10 9q8 -2 9 -9v-447q0 -286 -243 -302q-14 -1 -29 -1q-256 0 -271 265q-1 17 -1 33v400q0 36 32 54q14 7 29 7h6 q36 0 54 -32q7 -14 7 -29v-377q1 -302 144 -303q232 0 251 245q2 22 2 44v443z" glyph-name="Ugrave" horiz-adv-x="704" unicode="Ù"/>
<glyph d="M353 821q-30 0 -37 26q-3 12 1 24l21 59q8 25 38 37q11 4 20 4h31q32 0 40 -27q5 -19 -6 -36l-38 -59q-11 -17 -40 -26q-7 -2 -11 -2h-19zM605 741q2 8 10 9q8 -2 9 -9v-447q0 -286 -243 -302q-14 -1 -29 -1q-256 0 -271 265q-1 17 -1 33v400q0 36 32 54q14 7 29 7h6 q36 0 54 -32q7 -14 7 -29v-377q1 -302 144 -303q232 0 251 245q2 22 2 44v443z" glyph-name="Uacute" horiz-adv-x="704" unicode="Ú"/>
<glyph d="M361 878q-9 3 -14 -2l-2 -2l-40 -37q-17 -12 -42 -16h-28q-23 0 -27 20q-2 12 5 22l63 83q12 16 40 24q6 1 9 1h54q20 0 43 -19q4 -3 6 -6l63 -83q14 -20 -2 -35q-9 -7 -19 -7h-22h-3h-3h-4h-3h-3h-3h-3h-9l-30 36q-16 16 -26 21zM605 741q2 8 10 9q8 -2 9 -9v-447 q0 -286 -243 -302q-14 -1 -29 -1q-256 0 -271 265q-1 17 -1 33v400q0 36 32 54q14 7 29 7h6q36 0 54 -32q7 -14 7 -29v-377q1 -302 144 -303q232 0 251 245q2 22 2 44v443z" glyph-name="Ucircumflex" horiz-adv-x="704" unicode="Û"/>
<glyph d="M431 821q-36 0 -54 32q-7 14 -7 29v3q0 36 32 54q14 7 29 7h3q36 0 54 -32q7 -14 7 -29v-3q0 -36 -32 -54q-14 -7 -29 -7h-3zM270 821q-36 0 -54 32q-7 14 -7 29v3q0 36 32 54q14 7 29 7h3q36 0 54 -32q7 -14 7 -29v-3q0 -36 -32 -54q-14 -7 -29 -7h-3zM605 741q2 8 10 9 q8 -2 9 -9v-447q0 -286 -243 -302q-14 -1 -29 -1q-256 0 -271 265q-1 17 -1 33v400q0 36 32 54q14 7 29 7h6q36 0 54 -32q7 -14 7 -29v-377q1 -302 144 -303q232 0 251 245q2 22 2 44v443z" glyph-name="Udieresis" horiz-adv-x="704" unicode="Ü"/>
<glyph d="M304 830q-30 0 -37 26q-3 12 1 24l22 59q8 24 38 37q10 4 19 4h32q32 0 40 -27q5 -19 -6 -36l-39 -59q-11 -17 -40 -26q-7 -2 -11 -2h-19zM133 750q11 -1 18 -11l22 -40l174 -315q5 -6 13 -7q7 1 12 8l179 328l3 6t4 7.5t4.5 8t4 7.5t3.5 6l1 2q4 2 10 0q6 0 5 -5 q-1 -2 -1 -3l-196 -357q-7 -14 -8 -30v-294q0 -36 -32 -54q-14 -7 -29 -7h-6q-36 0 -54 32q-7 14 -7 29v253q0 12 -8 30l-200 356q-1 2 -15 27l-6 12q-6 7 3 10q2 1 3 1h103z" glyph-name="Yacute" horiz-adv-x="600" unicode="Ý"/>
<glyph d="M215 61q0 -36 -32 -54q-14 -7 -29 -7h-6q-36 0 -54 32q-7 14 -7 29v628q0 36 32 54q14 7 29 7h6q36 0 54 -32q7 -14 7 -29v-33q0 -35 31 -50q13 -6 25 -6h55q262 -2 263 -225q0 -206 -221 -223q-21 -2 -42 -2h-55q-35 0 -50 -31q-6 -12 -6 -24v-34zM215 221q0 -35 31 -50 q13 -6 25 -6h56q133 2 134 210q-1 209 -136 210h-55q-34 0 -49 -31q-6 -12 -6 -24v-309z" glyph-name="Thorn" horiz-adv-x="624" unicode="Þ"/>
<glyph d="M257 600q-22 0 -44 20q-5 5 -7 8l-39 59q-18 28 3 50q12 13 31 13h32q27 0 48 -26q6 -8 9 -15l22 -59q10 -29 -14 -44q-10 -6 -21 -6h-20zM85 381q-7 1 -6 9q31 85 113 121q40 18 84 18q198 -2 199 -193v-226q0 -19 9 -23q5 -1 13 -2q17 0 22 -15q1 -4 1 -6v-21 q0 -30 -26 -40q-8 -3 -16 -3q-82 1 -101 19q-16 16 -17 77v14v8l-1 -1q-23 -109 -114 -124q-16 -2 -34 -2q-170 1 -171 105q0 87 74 127q42 22 97 22q118 0 142 83q7 25 7 57q-1 129 -84 130q-89 0 -147 -71q-22 -28 -34 -60q-3 -5 -10 -3zM360 282q0 6 -9 6q-3 -1 -4 -2 q-34 -52 -125 -52q-41 0 -58 -62q-9 -32 -9 -71q1 -97 61 -98q105 0 133 98q8 31 11 70v111z" glyph-name="agrave" unicode="à"/>
<glyph d="M277 600q-30 0 -37 26q-3 12 1 24l21 59q8 25 38 37q11 4 20 4h31q32 0 40 -27q5 -19 -6 -36l-38 -59q-11 -17 -40 -26q-7 -2 -11 -2h-19zM85 381q-7 1 -6 9q31 85 113 121q40 18 84 18q198 -2 199 -193v-226q0 -19 9 -23q5 -1 13 -2q17 0 22 -15q1 -4 1 -6v-21 q0 -30 -26 -40q-8 -3 -16 -3q-82 1 -101 19q-16 16 -17 77v14v8l-1 -1q-23 -109 -114 -124q-16 -2 -34 -2q-170 1 -171 105q0 87 74 127q42 22 97 22q118 0 142 83q7 25 7 57q-1 129 -84 130q-89 0 -147 -71q-22 -28 -34 -60q-3 -5 -10 -3zM360 282q0 6 -9 6q-3 -1 -4 -2 q-34 -52 -125 -52q-41 0 -58 -62q-9 -32 -9 -71q1 -97 61 -98q105 0 133 98q8 31 11 70v111z" glyph-name="aacute" unicode="á"/>
<glyph d="M285 657q-9 3 -14 -2l-2 -2l-40 -37q-17 -12 -42 -16h-28q-23 0 -27 20q-2 12 5 22l63 83q12 16 40 24q6 1 9 1h54q20 0 43 -19q4 -3 6 -6l63 -83q14 -20 -2 -35q-9 -7 -19 -7h-22h-3h-3h-4h-3h-3h-3h-3h-9l-30 36q-16 16 -26 21zM85 381q-7 1 -6 9q31 85 113 121 q40 18 84 18q198 -2 199 -193v-226q0 -19 9 -23q5 -1 13 -2q17 0 22 -15q1 -4 1 -6v-21q0 -30 -26 -40q-8 -3 -16 -3q-82 1 -101 19q-16 16 -17 77v14v8l-1 -1q-23 -109 -114 -124q-16 -2 -34 -2q-170 1 -171 105q0 87 74 127q42 22 97 22q118 0 142 83q7 25 7 57 q-1 129 -84 130q-89 0 -147 -71q-22 -28 -34 -60q-3 -5 -10 -3zM360 282q0 6 -9 6q-3 -1 -4 -2q-34 -52 -125 -52q-41 0 -58 -62q-9 -32 -9 -71q1 -97 61 -98q105 0 133 98q8 31 11 70v111z" glyph-name="acircumflex" unicode="â"/>
<glyph d="M197 621q-1 -16 -17 -20q-2 -1 -4 -1l-22 1q-36 0 -39 29q-1 6 0 12q12 89 65 112q5 2 9 3q20 7 23 -17v-2l1 -12l-4 33q50 0 125 -77l1 -1q2 -2 3 -1l3 3q11 9 14 46q2 17 18 20q2 1 4 1h22q38 0 40 -32q0 -5 -1 -9q-12 -89 -66 -112q-28 -12 -32 21v2l-1 16l-4 45 l8 -90q-29 0 -74 43q-38 34 -52 35q-16 -2 -20 -48zM86 382q-8 2 -6 9q31 85 113 121q40 18 84 18q198 -2 199 -193v-226q0 -19 9 -23q5 -1 13 -2q17 0 22 -15q1 -4 1 -6v-21q0 -30 -26 -40q-8 -3 -16 -3q-82 1 -101 19q-16 16 -17 77v14v8l-1 -1q-23 -109 -114 -124 q-16 -2 -34 -2q-170 1 -171 105q0 87 74 127q42 22 97 22q118 0 142 83q7 25 7 57q-1 129 -84 130q-89 0 -147 -71q-22 -28 -34 -60q-3 -5 -10 -3zM361 283q0 6 -9 6q-3 -1 -4 -2q-34 -52 -125 -52q-41 0 -58 -62q-9 -32 -9 -71q1 -97 61 -98q105 0 133 98q8 31 11 70v111z " glyph-name="atilde" unicode="ã"/>
<glyph d="M385 600q-36 0 -54 32q-7 14 -7 29v3q0 36 32 54q14 7 29 7h3q36 0 54 -32q7 -14 7 -29v-3q0 -36 -32 -54q-14 -7 -29 -7h-3zM165 600q-36 0 -54 32q-7 14 -7 29v3q0 36 32 54q14 7 29 7h3q36 0 54 -32q7 -14 7 -29v-3q0 -36 -32 -54q-14 -7 -29 -7h-3zM85 381q-7 1 -6 9 q31 85 113 121q40 18 84 18q198 -2 199 -193v-226q0 -19 9 -23q5 -1 13 -2q17 0 22 -15q1 -4 1 -6v-21q0 -30 -26 -40q-8 -3 -16 -3q-82 1 -101 19q-16 16 -17 77v14v8l-1 -1q-23 -109 -114 -124q-16 -2 -34 -2q-170 1 -171 105q0 87 74 127q42 22 97 22q118 0 142 83 q7 25 7 57q-1 129 -84 130q-89 0 -147 -71q-22 -28 -34 -60q-3 -5 -10 -3zM360 282q0 6 -9 6q-3 -1 -4 -2q-34 -52 -125 -52q-41 0 -58 -62q-9 -32 -9 -71q1 -97 61 -98q105 0 133 98q8 31 11 70v111z" glyph-name="adieresis" unicode="ä"/>
<glyph d="M248 685q2 -31 28 -32q28 2 29 32q-2 30 -29 31q-27 -2 -28 -31zM191 685q0 69 60 82q12 2 25 2q69 0 83 -58q3 -13 3 -26q-2 -84 -86 -85q-84 2 -85 85zM85 381q-7 1 -6 9q31 85 113 121q40 18 84 18q198 -2 199 -193v-226q0 -19 9 -23q5 -1 13 -2q17 0 22 -15 q1 -4 1 -6v-21q0 -30 -26 -40q-8 -3 -16 -3q-82 1 -101 19q-16 16 -17 77v14v8l-1 -1q-23 -109 -114 -124q-16 -2 -34 -2q-170 1 -171 105q0 87 74 127q42 22 97 22q118 0 142 83q7 25 7 57q-1 129 -84 130q-89 0 -147 -71q-22 -28 -34 -60q-3 -5 -10 -3zM360 282q0 6 -9 6 q-3 -1 -4 -2q-34 -52 -125 -52q-41 0 -58 -62q-9 -32 -9 -71q1 -97 61 -98q105 0 133 98q8 31 11 70v111z" glyph-name="aring" unicode="å"/>
<glyph d="M228 -105q-2 2 -2 3l24 47q11 24 -13 49q-10 10 -21 14q-163 53 -164 252q0 200 163 252q53 17 118 17q90 -2 167 -152q2 -4 0 -9l-3 -2l-5 -2q-3 0 -7 5q-76 146 -153 147q-113 0 -145 -141q-11 -51 -11 -115q0 -211 111 -248q22 -7 45 -7q69 0 121 72q19 27 32 58 q3 5 10 2q7 -4 6 -10q-34 -88 -107 -122q-31 -14 -62 -14q-18 0 -45 2q-9 -1 -13 -7l-37 -78l1 -2q11 10 27 10q72 0 93 -37q6 -11 6 -22q0 -70 -53 -97q-22 -10 -47 -10q-35 0 -42 44q-2 14 -1 31l3 6q2 0 3 -1q0 -20 26 -24q4 -1 8 -1q29 0 36 35q2 9 2 17q0 44 -28 50 q-4 1 -7 1q-24 -1 -32 -11z" glyph-name="ccedilla" horiz-adv-x="532" unicode="ç"/>
<glyph d="M268 600q-22 0 -44 20q-5 5 -7 8l-39 59q-18 28 3 50q12 13 31 13h32q27 0 48 -26q6 -8 9 -15l22 -59q10 -29 -14 -44q-10 -6 -21 -6h-20zM490 134q3 4 10 3q6 -5 5 -10q-25 -79 -115 -116q-52 -20 -112 -20q-159 0 -209 138q-20 57 -20 131q0 205 144 255q42 14 93 14 q209 -2 234 -219q5 -45 -36 -57q-11 -3 -22 -3h-226q-43 0 -56 -34q-4 -12 -3 -25q13 -173 91 -185q6 -1 11 -1q112 0 175 67q25 28 36 62zM346 262q42 0 55 37q5 13 4 28q-17 188 -119 189q-92 0 -109 -179q0 -7 -1 -14q-3 -41 33 -56q13 -5 26 -5h111z" glyph-name="egrave" horiz-adv-x="538" unicode="è"/>
<glyph d="M288 600q-30 0 -37 26q-3 12 1 24l21 59q8 25 38 37q11 4 20 4h31q32 0 40 -27q5 -19 -6 -36l-38 -59q-11 -17 -40 -26q-7 -2 -11 -2h-19zM490 134q3 4 10 3q6 -5 5 -10q-25 -79 -115 -116q-52 -20 -112 -20q-159 0 -209 138q-20 57 -20 131q0 205 144 255q42 14 93 14 q209 -2 234 -219q5 -45 -36 -57q-11 -3 -22 -3h-226q-43 0 -56 -34q-4 -12 -3 -25q13 -173 91 -185q6 -1 11 -1q112 0 175 67q25 28 36 62zM346 262q42 0 55 37q5 13 4 28q-17 188 -119 189q-92 0 -109 -179q0 -7 -1 -14q-3 -41 33 -56q13 -5 26 -5h111z" glyph-name="eacute" horiz-adv-x="538" unicode="é"/>
<glyph d="M296 657q-9 3 -14 -2l-2 -2l-40 -37q-17 -12 -42 -16h-28q-23 0 -27 20q-2 12 5 22l63 83q12 16 40 24q6 1 9 1h54q20 0 43 -19q4 -3 6 -6l63 -83q14 -20 -2 -35q-9 -7 -19 -7h-22h-3h-3h-4h-3h-3h-3h-3h-9l-30 36q-16 16 -26 21zM490 134q3 4 10 3q6 -5 5 -10 q-25 -79 -115 -116q-52 -20 -112 -20q-159 0 -209 138q-20 57 -20 131q0 205 144 255q42 14 93 14q209 -2 234 -219q5 -45 -36 -57q-11 -3 -22 -3h-226q-43 0 -56 -34q-4 -12 -3 -25q13 -173 91 -185q6 -1 11 -1q112 0 175 67q25 28 36 62zM346 262q42 0 55 37q5 13 4 28 q-17 188 -119 189q-92 0 -109 -179q0 -7 -1 -14q-3 -41 33 -56q13 -5 26 -5h111z" glyph-name="ecircumflex" horiz-adv-x="538" unicode="ê"/>
<glyph d="M366 600q-36 0 -54 32q-7 14 -7 29v3q0 36 32 54q14 7 29 7h3q36 0 54 -32q7 -14 7 -29v-3q0 -36 -32 -54q-14 -7 -29 -7h-3zM205 600q-36 0 -54 32q-7 14 -7 29v3q0 36 32 54q14 7 29 7h3q36 0 54 -32q7 -14 7 -29v-3q0 -36 -32 -54q-14 -7 -29 -7h-3zM490 134q3 4 10 3 q6 -5 5 -10q-25 -79 -115 -116q-52 -20 -112 -20q-159 0 -209 138q-20 57 -20 131q0 205 144 255q42 14 93 14q209 -2 234 -219q5 -45 -36 -57q-11 -3 -22 -3h-226q-43 0 -56 -34q-4 -12 -3 -25q13 -173 91 -185q6 -1 11 -1q112 0 175 67q25 28 36 62zM346 262q42 0 55 37 q5 13 4 28q-17 188 -119 189q-92 0 -109 -179q0 -7 -1 -14q-3 -41 33 -56q13 -5 26 -5h111z" glyph-name="edieresis" horiz-adv-x="538" unicode="ë"/>
<glyph d="M148 600q-22 0 -44 20q-5 5 -7 8l-39 59q-18 28 3 50q12 13 31 13h32q27 0 48 -26q6 -8 9 -15l22 -59q10 -29 -14 -44q-10 -6 -21 -6h-20zM168 0q-36 0 -52 32q-6 13 -6 26v405q0 35 32 51q13 6 26 6q34 0 51 -31q6 -13 6 -26v-405q0 -36 -32 -52q-12 -6 -25 -6z" glyph-name="igrave" horiz-adv-x="295" unicode="ì"/>
<glyph d="M168 600q-30 0 -37 26q-3 12 1 24l21 59q8 25 38 37q11 4 20 4h31q32 0 40 -27q5 -19 -6 -36l-38 -59q-11 -17 -40 -26q-7 -2 -11 -2h-19zM168 0q-36 0 -52 32q-6 13 -6 26v405q0 35 32 51q13 6 26 6q34 0 51 -31q6 -13 6 -26v-405q0 -36 -32 -52q-12 -6 -25 -6z" glyph-name="iacute" horiz-adv-x="295" unicode="í"/>
<glyph d="M176 657q-9 3 -14 -2l-2 -2l-40 -37q-17 -12 -42 -16h-28q-23 0 -27 20q-2 12 5 22l63 83q12 16 40 24q6 1 9 1h54q20 0 43 -19q4 -3 6 -6l63 -83q14 -20 -2 -35q-9 -7 -19 -7h-22h-3h-3h-4h-3h-3h-3h-3h-9l-30 36q-16 16 -26 21zM168 0q-36 0 -52 32q-6 13 -6 26v405 q0 35 32 51q13 6 26 6q34 0 51 -31q6 -13 6 -26v-405q0 -36 -32 -52q-12 -6 -25 -6z" glyph-name="icircumflex" horiz-adv-x="295" unicode="î"/>
<glyph d="M276 600q-36 0 -54 32q-7 14 -7 29v3q0 36 32 54q14 7 29 7h3q36 0 54 -32q7 -14 7 -29v-3q0 -36 -32 -54q-14 -7 -29 -7h-3zM56 600q-36 0 -54 32q-7 14 -7 29v3q0 36 32 54q14 7 29 7h3q36 0 54 -32q7 -14 7 -29v-3q0 -36 -32 -54q-14 -7 -29 -7h-3zM168 0 q-36 0 -52 32q-6 13 -6 26v405q0 35 32 51q13 6 26 6q34 0 51 -31q6 -13 6 -26v-405q0 -36 -32 -52q-12 -6 -25 -6z" glyph-name="idieresis" horiz-adv-x="295" unicode="ï"/>
<glyph d="M199 621q-1 -16 -17 -20q-2 -1 -4 -1l-22 1q-36 0 -39 29q-1 6 0 12q12 89 65 112q5 2 9 3q20 7 23 -17v-2l1 -12l-4 33q50 0 125 -77l1 -1q2 -2 3 -1l3 3q11 9 14 46q2 17 18 20q2 1 4 1h22q38 0 40 -32q0 -5 -1 -9q-12 -89 -66 -112q-28 -12 -32 21v2l-1 16l-4 45 l8 -90q-29 0 -74 43q-38 34 -52 35q-16 -2 -20 -48zM486 59q0 -36 -32 -52q-12 -6 -25 -6q-36 -1 -52 31q-6 13 -6 26v257q-1 189 -29 194q-89 0 -131 -79q-25 -48 -25 -110v-262q0 -36 -32 -52q-12 -6 -25 -6q-36 0 -52 32q-6 13 -6 26v405q0 35 32 51q13 6 26 6 q34 0 51 -31q6 -13 6 -26v-36q0 -6 9 -5q4 1 5 3q37 86 123 99q13 2 25 2q90 0 123 -101q15 -46 15 -109v-257z" glyph-name="ntilde" unicode="ñ"/>
<glyph d="M276 600q-22 0 -44 20q-5 5 -7 8l-39 59q-18 28 3 50q12 13 31 13h32q27 0 48 -26q6 -8 9 -15l22 -59q10 -29 -14 -44q-10 -6 -21 -6h-20zM175 260q0 -221 92 -252q14 -4 28 -4q88 0 112 144q8 50 8 112q0 221 -92 252q-14 4 -28 4q-88 0 -112 -144q-8 -50 -8 -112z M50 260q0 204 148 254q44 15 97 15q179 0 228 -152q17 -52 17 -117q0 -204 -148 -254q-44 -15 -97 -15q-179 0 -228 152q-17 52 -17 117z" glyph-name="ograve" horiz-adv-x="590" unicode="ò"/>
<glyph d="M296 600q-30 0 -37 26q-3 12 1 24l21 59q8 25 38 37q11 4 20 4h31q32 0 40 -27q5 -19 -6 -36l-38 -59q-11 -17 -40 -26q-7 -2 -11 -2h-19zM175 260q0 -221 92 -252q14 -4 28 -4q88 0 112 144q8 50 8 112q0 221 -92 252q-14 4 -28 4q-88 0 -112 -144q-8 -50 -8 -112z M50 260q0 204 148 254q44 15 97 15q179 0 228 -152q17 -52 17 -117q0 -204 -148 -254q-44 -15 -97 -15q-179 0 -228 152q-17 52 -17 117z" glyph-name="oacute" horiz-adv-x="590" unicode="ó"/>
<glyph d="M304 657q-9 3 -14 -2l-2 -2l-40 -37q-17 -12 -42 -16h-28q-23 0 -27 20q-2 12 5 22l63 83q12 16 40 24q6 1 9 1h54q20 0 43 -19q4 -3 6 -6l63 -83q14 -20 -2 -35q-9 -7 -19 -7h-22h-3h-3h-4h-3h-3h-3h-3h-9l-30 36q-16 16 -26 21zM175 260q0 -221 92 -252q14 -4 28 -4 q88 0 112 144q8 50 8 112q0 221 -92 252q-14 4 -28 4q-88 0 -112 -144q-8 -50 -8 -112zM50 260q0 204 148 254q44 15 97 15q179 0 228 -152q17 -52 17 -117q0 -204 -148 -254q-44 -15 -97 -15q-179 0 -228 152q-17 52 -17 117z" glyph-name="ocircumflex" horiz-adv-x="590" unicode="ô"/>
<glyph d="M216 621q-1 -16 -17 -20q-2 -1 -4 -1l-22 1q-36 0 -39 29q-1 6 0 12q12 89 65 112q5 2 9 3q20 7 23 -17v-2l1 -12l-4 33q50 0 125 -77l1 -1q2 -2 3 -1l3 3q11 9 14 46q2 17 18 20q2 1 4 1h22q38 0 40 -32q0 -5 -1 -9q-12 -89 -66 -112q-28 -12 -32 21v2l-1 16l-4 45 l8 -90q-29 0 -74 43q-38 34 -52 35q-16 -2 -20 -48zM176 261q0 -221 92 -252q14 -4 28 -4q88 0 112 144q8 50 8 112q0 221 -92 252q-14 4 -28 4q-88 0 -112 -144q-8 -50 -8 -112zM51 261q0 204 148 254q44 15 97 15q179 0 228 -152q17 -52 17 -117q0 -204 -148 -254 q-44 -15 -97 -15q-179 0 -228 152q-17 52 -17 117z" glyph-name="otilde" horiz-adv-x="590" unicode="õ"/>
<glyph d="M374 600q-36 0 -54 32q-7 14 -7 29v3q0 36 32 54q14 7 29 7h3q36 0 54 -32q7 -14 7 -29v-3q0 -36 -32 -54q-14 -7 -29 -7h-3zM213 600q-36 0 -54 32q-7 14 -7 29v3q0 36 32 54q14 7 29 7h3q36 0 54 -32q7 -14 7 -29v-3q0 -36 -32 -54q-14 -7 -29 -7h-3zM175 260 q0 -221 92 -252q14 -4 28 -4q88 0 112 144q8 50 8 112q0 221 -92 252q-14 4 -28 4q-88 0 -112 -144q-8 -50 -8 -112zM50 260q0 204 148 254q44 15 97 15q179 0 228 -152q17 -52 17 -117q0 -204 -148 -254q-44 -15 -97 -15q-179 0 -228 152q-17 52 -17 117z" glyph-name="odieresis" horiz-adv-x="590" unicode="ö"/>
<glyph d="M50 260q0 204 148 254q44 15 97 15q78 0 135 -32q18 -10 34 1l3 3l7 9q12 13 35 18q4 1 6 1q12 0 12 -11q-1 -5 -3 -8l-24 -30q-12 -15 -4 -42q2 -6 4 -9q40 -66 40 -169q0 -204 -148 -254q-44 -15 -97 -15q-78 0 -135 32q-18 10 -34 -1l-3 -3l-7 -9q-12 -13 -35 -18 q-4 -1 -6 -1q-12 0 -12 11q0 4 3 8l24 30q12 15 4 42q-2 6 -4 9q-40 66 -40 169zM376 390q19 22 12 50q-1 4 -2 6q-33 69 -91 70q-88 0 -112 -144q-8 -50 -8 -112q0 -55 5 -90q0 -6 6 -7q4 1 6 3zM410 351q0 6 -6 7q-4 -1 -6 -3l-184 -225q-19 -22 -12 -50q1 -4 2 -6 q32 -68 91 -69q88 0 112 144q8 50 8 112q0 55 -5 90z" glyph-name="oslash" horiz-adv-x="590" unicode="ø"/>
<glyph d="M253 600q-22 0 -44 20q-5 5 -7 8l-38 59q-18 28 3 50q12 13 31 13h31q29 0 50 -26q5 -8 8 -15l21 -59q10 -29 -14 -44q-10 -6 -21 -6h-20zM480 58q0 -36 -32 -52q-12 -6 -25 -6h-7q-32 0 -46 29q-5 11 -5 22v16q0 5 -8 4q-3 -1 -4 -2q-43 -73 -126 -78q-112 0 -145 84 q-17 46 -17 125v263q0 35 32 51q13 6 26 6q34 0 51 -31q6 -13 6 -26v-263q0 -161 33 -187q9 -6 19 -6q82 0 116 67q17 33 17 74v315q0 35 32 51q13 6 26 6q34 0 51 -31q6 -13 6 -26v-405z" glyph-name="ugrave" unicode="ù"/>
<glyph d="M273 600q-30 0 -37 26q-3 12 1 24l22 59q8 24 38 37q10 4 19 4h32q32 0 40 -27q5 -19 -6 -36l-39 -59q-11 -17 -40 -26q-7 -2 -11 -2h-19zM480 58q0 -36 -32 -52q-12 -6 -25 -6h-7q-32 0 -46 29q-5 11 -5 22v16q0 5 -8 4q-3 -1 -4 -2q-43 -73 -126 -78q-112 0 -145 84 q-17 46 -17 125v263q0 35 32 51q13 6 26 6q34 0 51 -31q6 -13 6 -26v-263q0 -161 33 -187q9 -6 19 -6q82 0 116 67q17 33 17 74v315q0 35 32 51q13 6 26 6q34 0 51 -31q6 -13 6 -26v-405z" glyph-name="uacute" unicode="ú"/>
<glyph d="M282 657q-9 3 -14 -2l-2 -2l-40 -37q-17 -12 -42 -16h-28q-23 0 -27 20q-2 12 5 22l63 83q12 16 40 24q6 1 9 1h54q20 0 43 -19q4 -3 6 -6l63 -83q14 -20 -2 -35q-9 -7 -19 -7h-22h-3h-3h-4h-3h-3h-3h-3h-9l-30 36q-16 16 -26 21zM480 58q0 -36 -32 -52q-12 -6 -25 -6h-7 q-32 0 -46 29q-5 11 -5 22v16q0 5 -8 4q-3 -1 -4 -2q-43 -73 -126 -78q-112 0 -145 84q-17 46 -17 125v263q0 35 32 51q13 6 26 6q34 0 51 -31q6 -13 6 -26v-263q0 -161 33 -187q9 -6 19 -6q82 0 116 67q17 33 17 74v315q0 35 32 51q13 6 26 6q34 0 51 -31q6 -13 6 -26v-405 z" glyph-name="ucircumflex" unicode="û"/>
<glyph d="M351 600q-36 0 -54 32q-7 14 -7 29v3q0 36 32 54q14 7 29 7h3q36 0 54 -32q7 -14 7 -29v-3q0 -36 -32 -54q-14 -7 -29 -7h-3zM191 600q-36 0 -54 32q-7 14 -7 29v3q0 36 32 54q14 7 29 7h3q36 0 54 -32q7 -14 7 -29v-3q0 -36 -32 -54q-14 -7 -29 -7h-3zM480 58 q0 -36 -32 -52q-12 -6 -25 -6h-7q-32 0 -46 29q-5 11 -5 22v16q0 5 -8 4q-3 -1 -4 -2q-43 -73 -126 -78q-112 0 -145 84q-17 46 -17 125v263q0 35 32 51q13 6 26 6q34 0 51 -31q6 -13 6 -26v-263q0 -161 33 -187q9 -6 19 -6q82 0 116 67q17 33 17 74v315q0 35 32 51 q13 6 26 6q34 0 51 -31q6 -13 6 -26v-405z" glyph-name="udieresis" unicode="ü"/>
<glyph d="M232 600q-30 0 -37 26q-3 12 1 24l21 59q8 25 38 37q11 4 20 4h31q32 0 40 -27q5 -19 -6 -36l-38 -59q-11 -17 -40 -26q-7 -2 -11 -2h-19zM244 -76l-1 2q-31 -87 -73 -111q-28 -15 -76 -15h-42q-7 1 -8 7q2 7 8 8h42q66 0 96 39q20 26 39 78l3 7q0 12 -1 15l-198 505 q-13 34 13 53q13 8 28 8h52q11 -1 18 -12l5 -13l9 -24l75 -196q15 -39 54 -41t57 33q2 6 4 10l68 198l13 36q3 8 13 9q7 -1 7 -9l-146 -418z" glyph-name="yacute" horiz-adv-x="462" unicode="ý"/>
<glyph d="M128 750l29 -1q21 -1 27 -22q1 -5 1 -8v-308q0 -6 10 -6q4 1 5 2q45 120 163 121q97 0 149 -97q37 -71 37 -172q0 -153 -78 -226q-46 -43 -108 -43q-119 2 -163 121q-2 6 -12 0q-2 -2 -3 -4v-300q0 -34 -31 -51q-13 -6 -26 -6q-36 0 -52 32q-6 12 -6 25v914q0 22 21 28 q4 1 8 1h29zM185 258q0 -197 117 -232q23 -7 49 -7q44 0 63 108q10 57 10 131q0 185 -42 240q-12 14 -25 15q-121 0 -158 -135q-14 -52 -14 -120z" glyph-name="thorn" horiz-adv-x="599" unicode="þ"/>
</font>
</defs>
</svg>
